<svg width="70.000000" height="70.000000" viewBox="0 0 70 70" fill="none" xmlns="http://www.w3.org/2000/svg" xmlns:xlink="http://www.w3.org/1999/xlink">
	<desc>
			Created with Pixso.
	</desc>
	<defs/>
	<ellipse id="BG" cx="34.762939" cy="35.000000" rx="34.831188" ry="35.000000" fill="#5CBA99" fill-opacity="1.000000"/>
	<path id="hr" d="M44.83 31.48L44.83 43L46.52 43L46.52 38.5C46.52 37.99 46.58 37.55 46.7 37.19C46.81 36.84 46.97 36.55 47.17 36.33C47.37 36.11 47.6 35.95 47.87 35.85C48.13 35.76 48.42 35.71 48.72 35.71Q49.4 35.71 49.83 35.99Q50.04 36.13 50.21 36.31Q50.38 36.5 50.49 36.73C50.65 37.03 50.76 37.36 50.81 37.71C50.87 38.06 50.9 38.41 50.9 38.75L50.9 43L52.59 43L52.59 38.19Q52.59 37.8 52.52 37.27C52.47 36.91 52.38 36.55 52.25 36.19C52.12 35.82 51.92 35.48 51.67 35.17C51.42 34.85 51.09 34.6 50.68 34.41C50.28 34.22 49.78 34.12 49.18 34.12Q48.01 34.12 47.19 34.63Q46.88 34.82 46.62 35.06Q46.46 35.22 46.32 35.39L46.32 31.48L44.83 31.48ZM54.68 34.35L54.68 43L56.36 43L56.36 38.64Q56.36 38.12 56.47 37.66C56.54 37.36 56.65 37.08 56.81 36.83C56.96 36.58 57.18 36.36 57.45 36.19Q57.66 36.05 57.9 35.97Q58.14 35.88 58.4 35.86C58.74 35.83 59.06 35.85 59.34 35.92L59.34 34.35C59.08 34.31 58.8 34.29 58.52 34.31C58.24 34.33 57.96 34.38 57.69 34.47C57.42 34.56 57.18 34.68 56.96 34.84C56.74 34.99 56.54 35.18 56.37 35.42C56.29 35.52 56.23 35.62 56.16 35.73L56.16 34.35L54.68 34.35Z" fill="#FFFFFF" fill-opacity="1.000000" fill-rule="evenodd"/>
	<path id="24" d="M25.75 44.18L14.06 44.18L14.08 41.94L21.6 35.2C22.21 34.66 22.62 34.14 22.84 33.66C23.06 33.18 23.17 32.69 23.17 32.2Q23.17 31.33 22.82 30.64Q22.61 30.22 22.27 29.87Q21.92 29.51 21.5 29.29Q20.83 28.94 19.98 28.94C19.34 28.94 18.77 29.09 18.28 29.39Q17.88 29.63 17.58 29.94Q17.3 30.23 17.1 30.58Q16.95 30.85 16.85 31.14Q16.68 31.63 16.69 32.19L14.12 32.19Q14.12 30.6 14.8 29.39Q14.84 29.32 14.88 29.25C15.38 28.4 16.08 27.74 16.97 27.27C17.86 26.79 18.88 26.55 20.03 26.55C21.12 26.55 22.09 26.8 22.96 27.29C23.82 27.78 24.5 28.45 25 29.31C25.5 30.16 25.75 31.14 25.75 32.24Q25.75 33.41 25.44 34.25C25.23 34.8 24.92 35.32 24.5 35.79C24.09 36.26 23.57 36.77 22.94 37.32L17.94 41.79L25.75 41.79L25.75 44.18ZM37.31 44.19L34.76 44.19L34.76 41.18L26.96 41.18L26.96 38.8L32.58 26.91L35.45 26.91L29.83 38.8L34.76 38.8L34.76 34.12L37.31 34.12L37.31 38.8L39.02 38.8L39.02 41.18L37.31 41.18L37.31 44.19Z" fill="#FFFFFF" fill-opacity="1.000000" fill-rule="evenodd"/>
</svg>
