<svg width="29.000000" height="13.000000" viewBox="0 0 29 13" fill="none" xmlns="http://www.w3.org/2000/svg" xmlns:xlink="http://www.w3.org/1999/xlink">
	<desc>
			Created with Pixso.
	</desc>
	<defs/>
	<path id="Arrow" d="M1.02 6.97L1 7C0.43 7 0 6.56 0 6C0 5.43 0.43 5 1 5L1.02 5.02L1.02 6.97ZM25.58 6L20.63 1.05C20.24 0.65 20.24 0.03 20.63 -0.37C21.03 -0.76 21.65 -0.76 22.05 -0.37L27.7 5.29C28.1 5.68 28.1 6.31 27.7 6.7L22.05 12.36C21.65 12.75 21.03 12.75 20.63 12.36C20.24 11.96 20.24 11.34 20.63 10.94L25.58 6Z" fill="#1E1B1B" fill-opacity="1.000000" fill-rule="nonzero"/>
	<path id="Arrow" d="M24.58 5L20.63 1.05C20.24 0.65 20.24 0.03 20.63 -0.37C21.03 -0.76 21.65 -0.76 22.05 -0.37L27.7 5.29C28.1 5.68 28.1 6.31 27.7 6.7L22.05 12.36C21.65 12.75 21.03 12.75 20.63 12.36C20.24 11.96 20.24 11.34 20.63 10.94L24.58 7L1 7C0.43 7 0 6.56 0 6C0 5.43 0.43 5 1 5L24.58 5Z" fill="#F2F2F2" fill-opacity="1.000000" fill-rule="evenodd"/>
</svg>
