<svg width="40.000000" height="40.000000" viewBox="0 0 40 40" fill="none" xmlns="http://www.w3.org/2000/svg" xmlns:xlink="http://www.w3.org/1999/xlink">
	<desc>
			Created with Pixso.
	</desc>
	<defs/>
	<circle id="BG" cx="20.000000" cy="20.000000" r="20.000000" fill="#61C4A1" fill-opacity="1.000000"/>
	<path id="Call" d="M27.76 23.92C26.46 22.88 25.14 22.26 23.86 23.29L23.1 23.91C22.54 24.36 21.5 26.48 17.48 22.17C13.46 17.86 15.85 17.19 16.41 16.74L17.18 16.12C18.45 15.08 17.97 13.78 17.05 12.44L16.5 11.63C15.58 10.29 14.57 9.42 13.29 10.45L12.6 11.01C12.04 11.39 10.46 12.64 10.08 15.01C9.62 17.84 11.07 21.1 14.4 24.66C17.72 28.23 20.98 30.03 24.06 29.99C26.63 29.97 28.17 28.69 28.66 28.22L29.35 27.66C30.62 26.63 29.83 25.58 28.53 24.54L27.76 23.92Z" fill="#FFFFFF" fill-opacity="1.000000" fill-rule="nonzero"/>
</svg>
