<svg width="30.000000" height="30.000000" viewBox="0 0 30 30" fill="none" xmlns="http://www.w3.org/2000/svg" xmlns:xlink="http://www.w3.org/1999/xlink">
	<desc>
			Created with Pixso.
	</desc>
	<defs/>
	<path id="Icon" d="M25.42 3.54C22.5 0.62 18.61 -0.99 14.48 -0.99C10.35 -0.99 6.46 0.62 3.54 3.54C0.62 6.46 -0.99 10.35 -0.99 14.48C-0.99 18.61 0.62 22.5 3.54 25.42C6.46 28.34 10.35 29.95 14.48 29.95C18.61 29.95 22.5 28.34 25.42 25.42C28.34 22.5 29.95 18.61 29.95 14.48C29.95 10.35 28.34 6.46 25.42 3.54ZM14.48 27.53C7.28 27.53 1.43 21.68 1.43 14.48C1.43 7.28 7.28 1.43 14.48 1.43C21.68 1.43 27.53 7.28 27.53 14.48C27.53 21.68 21.68 27.53 14.48 27.53ZM16.8 15.17L21.19 19.54L19.49 21.26L15.04 16.83C14.86 16.87 14.67 16.9 14.48 16.9C13.14 16.9 12.06 15.81 12.06 14.48C12.06 13.61 12.52 12.85 13.21 12.42L13.21 3.9L14.42 3.9L15.63 3.9L15.63 12.35C16.38 12.76 16.9 13.56 16.9 14.48C16.9 14.72 16.86 14.95 16.8 15.17Z" fill="#E2E6E9" fill-opacity="1.000000" fill-rule="nonzero"/>
</svg>
