<svg width="24.000000" height="24.000000" viewBox="0 0 24 24" fill="none" xmlns="http://www.w3.org/2000/svg" xmlns:xlink="http://www.w3.org/1999/xlink">
	<desc>
			Created with Pixso.
	</desc>
	<defs>
		<clipPath id="clip482_1269">
			<rect id="Instagram / Negative" width="24.000000" height="24.000000" transform="translate(-0.666504 0.000000)" fill="white" fill-opacity="0"/>
		</clipPath>
	</defs>
	<rect id="Instagram / Negative" width="24.000000" height="24.000000" transform="translate(-0.666504 0.000000)" fill="#FFFFFF" fill-opacity="0"/>
	<g clip-path="url(#clip482_1269)">
		<path id="Vector" d="M11.33 2.16C14.53 2.16 14.91 2.17 16.18 2.23C17.35 2.28 17.98 2.47 18.4 2.64C18.96 2.85 19.36 3.12 19.78 3.53C20.2 3.96 20.46 4.35 20.68 4.91C20.84 5.33 21.04 5.97 21.09 7.14C21.14 8.4 21.16 8.78 21.16 11.99C21.16 15.19 21.14 15.57 21.09 16.83C21.04 18 20.84 18.64 20.68 19.06C20.46 19.62 20.2 20.02 19.78 20.44C19.36 20.86 18.96 21.12 18.4 21.33C17.98 21.5 17.34 21.69 16.18 21.75C14.91 21.8 14.53 21.82 11.33 21.82C8.12 21.82 7.74 21.8 6.48 21.75C5.31 21.69 4.68 21.5 4.26 21.33C3.7 21.12 3.29 20.85 2.88 20.44C2.46 20.02 2.2 19.62 1.98 19.06C1.82 18.64 1.62 18 1.57 16.83C1.51 15.57 1.5 15.19 1.5 11.99C1.5 8.78 1.51 8.4 1.57 7.14C1.62 5.97 1.82 5.33 1.98 4.91C2.2 4.35 2.46 3.95 2.88 3.53C3.3 3.11 3.7 2.85 4.26 2.64C4.68 2.47 5.31 2.28 6.48 2.23C7.74 2.17 8.12 2.16 11.33 2.16ZM11.33 0C8.07 0 7.66 0.01 6.38 0.07C5.11 0.12 4.23 0.33 3.47 0.62C2.68 0.93 2.01 1.34 1.34 2.01C0.67 2.68 0.27 3.35 -0.04 4.13C-0.34 4.9 -0.54 5.77 -0.6 7.04C-0.66 8.33 -0.67 8.74 -0.67 12C-0.67 15.25 -0.66 15.66 -0.6 16.94C-0.54 18.22 -0.34 19.09 -0.04 19.85C0.27 20.64 0.67 21.31 1.34 21.98C2.01 22.65 2.68 23.06 3.47 23.36C4.23 23.66 5.1 23.86 6.38 23.92C7.66 23.98 8.07 23.99 11.32 23.99C14.58 23.99 14.99 23.98 16.27 23.92C17.54 23.86 18.42 23.66 19.18 23.36C19.97 23.06 20.64 22.65 21.3 21.98C21.97 21.31 22.38 20.64 22.69 19.86C22.98 19.09 23.19 18.22 23.24 16.95C23.3 15.66 23.31 15.26 23.31 12C23.31 8.74 23.3 8.33 23.24 7.05C23.19 5.78 22.98 4.9 22.69 4.14C22.39 3.35 21.98 2.68 21.31 2.01C20.65 1.34 19.98 0.93 19.19 0.63C18.43 0.33 17.55 0.13 16.28 0.07C14.99 0.01 14.59 0 11.33 0Z" fill="#FFFFFF" fill-opacity="1.000000" fill-rule="nonzero"/>
		<path id="Vector" d="M11.33 5.83C7.93 5.83 5.16 8.59 5.16 12C5.16 15.4 7.93 18.16 11.33 18.16C14.73 18.16 17.49 15.4 17.49 12C17.49 8.59 14.73 5.83 11.33 5.83ZM11.33 15.99C9.12 15.99 7.33 14.2 7.33 12C7.33 9.79 9.12 8 11.33 8C13.54 8 15.33 9.79 15.33 12C15.33 14.2 13.54 15.99 11.33 15.99Z" fill="#FFFFFF" fill-opacity="1.000000" fill-rule="nonzero"/>
		<path id="Vector" d="M19.18 5.59C19.18 6.38 18.53 7.03 17.74 7.03C16.94 7.03 16.3 6.38 16.3 5.59C16.3 4.79 16.94 4.15 17.74 4.15C18.53 4.15 19.18 4.79 19.18 5.59Z" fill="#FFFFFF" fill-opacity="1.000000" fill-rule="nonzero"/>
	</g>
</svg>
