<svg width="24.000000" height="24.000000" viewBox="0 0 24 24" fill="none" xmlns="http://www.w3.org/2000/svg" xmlns:xlink="http://www.w3.org/1999/xlink">
	<desc>
			Created with Pixso.
	</desc>
	<defs>
		<filter id="filter_703_94_dd" x="0.000000" y="0.000000" width="24.000000" height="24.000000" filterUnits="userSpaceOnUse" color-interpolation-filters="sRGB">
			<feFlood flood-opacity="0" result="BackgroundImageFix"/>
			<feGaussianBlur in="BackgroundImage" stdDeviation="26.6667"/>
			<feComposite in2="SourceAlpha" operator="in" result="effect_backgroundBlur_1"/>
			<feBlend mode="normal" in="SourceGraphic" in2="effect_backgroundBlur_1" result="shape"/>
		</filter>
	</defs>
	<g filter="url(#filter_703_94_dd)">
		<path id="Vector" d="M0 12C0 5.37 5.37 0 12 0C18.62 0 24 5.37 24 12C24 18.62 18.62 24 12 24C5.37 24 0 18.62 0 12Z" fill="#1E1B1B" fill-opacity="1.000000" fill-rule="evenodd"/>
	</g>
	<path id="Vector" d="M8.99 13.71L8.99 10.18C8.99 8.67 8.99 7.91 9.48 7.62C9.97 7.33 10.63 7.7 11.95 8.42L14.98 10.09C16.32 10.82 16.99 11.19 17 11.76C17.02 12.34 16.37 12.74 15.07 13.54L12.04 15.41C10.69 16.24 10.01 16.66 9.5 16.38C8.99 16.09 8.99 15.3 8.99 13.71Z" fill="#FFFFFF" fill-opacity="1.000000" fill-rule="evenodd"/>
</svg>
