<svg width="24.000000" height="24.000000" viewBox="0 0 24 24" fill="none" xmlns="http://www.w3.org/2000/svg" xmlns:xlink="http://www.w3.org/1999/xlink">
	<desc>
			Created with Pixso.
	</desc>
	<defs>
		<clipPath id="clip482_1267">
			<rect id="Twitter / Negative" width="24.000000" height="24.000000" transform="translate(-0.333496 0.000000)" fill="white" fill-opacity="0"/>
		</clipPath>
	</defs>
	<rect id="Twitter / Negative" width="24.000000" height="24.000000" transform="translate(-0.333496 0.000000)" fill="#FFFFFF" fill-opacity="0"/>
	<g clip-path="url(#clip482_1267)">
		<path id="Vector" d="M7.21 21.75C16.27 21.75 21.22 14.24 21.22 7.74C21.22 7.53 21.22 7.31 21.21 7.1C22.17 6.4 23 5.54 23.66 4.55C22.76 4.95 21.81 5.21 20.84 5.32C21.86 4.71 22.63 3.74 23 2.6C22.03 3.17 20.98 3.58 19.87 3.8C19.13 3.01 18.15 2.48 17.08 2.31C16.01 2.13 14.91 2.32 13.96 2.83C13 3.34 12.24 4.15 11.8 5.14C11.35 6.12 11.24 7.23 11.48 8.29C9.52 8.19 7.61 7.68 5.86 6.79C4.11 5.91 2.57 4.66 1.33 3.14C0.71 4.23 0.51 5.51 0.8 6.73C1.08 7.95 1.82 9.02 2.86 9.71C2.08 9.69 1.31 9.48 0.63 9.1L0.63 9.16C0.63 10.3 1.02 11.4 1.74 12.28C2.46 13.16 3.46 13.77 4.58 13.99C3.85 14.19 3.09 14.22 2.36 14.07C2.67 15.05 3.28 15.91 4.11 16.52C4.93 17.13 5.93 17.48 6.95 17.5C5.21 18.87 3.06 19.61 0.84 19.61C0.44 19.6 0.05 19.58 -0.34 19.53C1.91 20.98 4.54 21.75 7.21 21.75Z" fill="#FFFFFF" fill-opacity="1.000000" fill-rule="nonzero"/>
	</g>
</svg>
