<svg width="44.000000" height="39.000000" viewBox="0 0 44 39" fill="none" xmlns="http://www.w3.org/2000/svg" xmlns:xlink="http://www.w3.org/1999/xlink">
	<desc>
			Created with Pixso.
	</desc>
	<defs/>
	<path id="Vector" d="M38.5 1.58C38.5 0.57 37.67 -0.25 36.66 -0.25L29.33 -0.25C28.32 -0.25 27.5 0.57 27.5 1.58L27.5 5.25L38.5 5.25L38.5 1.58Z" fill="#1E1B1B" fill-opacity="1.000000" fill-rule="nonzero"/>
	<path id="Vector" d="M16.5 1.58C16.5 0.57 15.67 -0.25 14.66 -0.25L7.33 -0.25C6.32 -0.25 5.5 0.57 5.5 1.58L5.5 5.25L16.5 5.25L16.5 1.58Z" fill="#1E1B1B" fill-opacity="1.000000" fill-rule="nonzero"/>
	<path id="Vector" d="M0 7.08L0 34.58C0 35.59 0.82 36.41 1.83 36.41L5.5 36.41L5.5 38.25L9.16 38.25L9.16 36.41L34.83 36.41L34.83 38.25L38.5 38.25L38.5 36.41L42.16 36.41C43.17 36.41 44 35.59 44 34.58L44 7.08L0 7.08ZM14.66 32.75L18.33 21.75L12.83 21.75L25.66 10.75L22 21.75L27.5 21.75L14.66 32.75Z" fill="#1E1B1B" fill-opacity="1.000000" fill-rule="nonzero"/>
</svg>
