<svg width="55.000000" height="39.000000" viewBox="0 0 55 39" fill="none" xmlns="http://www.w3.org/2000/svg" xmlns:xlink="http://www.w3.org/1999/xlink">
	<desc>
			Created with Pixso.
	</desc>
	<defs/>
	<path id="Vector" d="M53.83 11.85C53.56 11.53 53.17 11.34 52.76 11.34L47.49 11.34C46.18 7.91 44.49 4.55 42.57 3.28C35.9 -1.1 18.23 -1.1 11.57 3.28C9.65 4.55 7.96 7.92 6.65 11.34L1.38 11.34C0.96 11.34 0.57 11.53 0.31 11.85C0.04 12.17 -0.06 12.6 0.02 13.01L0.8 16.79C0.94 17.44 1.51 17.9 2.16 17.9L3.72 17.9C2.22 19.63 1.49 21.82 1.48 24.01C1.47 26.72 2.49 29.17 4.37 30.9C4.39 30.91 4.41 30.93 4.43 30.94L4.43 36.24C4.43 37.38 5.36 38.32 6.51 38.32L11.37 38.32C12.52 38.32 13.45 37.38 13.45 36.24L13.45 34.11L40.68 34.11L40.68 36.24C40.68 37.38 41.61 38.32 42.76 38.32L47.62 38.32C48.77 38.32 49.7 37.38 49.7 36.24L49.7 31.05C51.7 29.22 52.65 26.71 52.66 24.2C52.67 21.94 51.91 19.67 50.31 17.89L51.97 17.89C52.63 17.89 53.2 17.43 53.33 16.79L54.11 13.01C54.19 12.6 54.09 12.18 53.83 11.85ZM13.86 6.75C19.17 3.26 34.97 3.26 40.28 6.75C41.31 7.43 42.63 10.17 43.85 13.52L10.28 13.52C11.5 10.17 12.82 7.43 13.86 6.75ZM7.64 24.53C7.64 22.28 9.47 20.45 11.73 20.45C13.99 20.45 15.82 22.28 15.82 24.53C15.82 26.79 13.99 28.63 11.73 28.63C9.47 28.63 7.64 26.79 7.64 24.53ZM42.46 28.63C40.2 28.63 38.37 26.79 38.37 24.53C38.37 22.28 40.2 20.45 42.46 20.45C44.72 20.45 46.55 22.28 46.55 24.53C46.55 26.79 44.72 28.63 42.46 28.63Z" fill="#1E1B1B" fill-opacity="1.000000" fill-rule="nonzero"/>
</svg>
