<svg width="46.000000" height="46.000000" viewBox="0 0 46 46" fill="none" xmlns="http://www.w3.org/2000/svg" xmlns:xlink="http://www.w3.org/1999/xlink">
	<desc>
			Created with Pixso.
	</desc>
	<defs/>
	<path id="Icon" d="M45.85 20.44C45.78 19.79 45.02 19.31 44.37 19.31C42.26 19.31 40.39 18.07 39.61 16.16C38.81 14.2 39.32 11.91 40.89 10.47C41.39 10.02 41.45 9.26 41.04 8.74C39.96 7.37 38.73 6.13 37.39 5.06C36.87 4.64 36.1 4.69 35.64 5.2C34.27 6.71 31.81 7.28 29.91 6.49C27.93 5.65 26.68 3.65 26.8 1.49C26.84 0.81 26.35 0.23 25.67 0.15C23.95 -0.05 22.22 -0.06 20.5 0.13C19.83 0.21 19.34 0.78 19.36 1.45C19.43 3.58 18.17 5.55 16.21 6.36C14.33 7.13 11.88 6.57 10.52 5.06C10.06 4.57 9.31 4.5 8.78 4.92C7.4 6 6.15 7.24 5.06 8.59C4.63 9.12 4.7 9.89 5.2 10.34C6.8 11.79 7.31 14.1 6.48 16.08C5.69 17.97 3.72 19.19 1.48 19.19C0.75 19.17 0.23 19.66 0.15 20.32C-0.05 22.05 -0.06 23.81 0.14 25.55C0.21 26.2 0.99 26.68 1.65 26.68C3.65 26.63 5.57 27.87 6.38 29.83C7.18 31.79 6.67 34.08 5.09 35.52C4.6 35.97 4.54 36.73 4.95 37.25C6.02 38.61 7.25 39.85 8.59 40.93C9.12 41.36 9.89 41.3 10.34 40.8C11.72 39.27 14.18 38.71 16.08 39.51C18.06 40.34 19.31 42.34 19.19 44.5C19.15 45.17 19.64 45.76 20.32 45.84C21.2 45.94 22.08 45.99 22.97 45.99C23.81 45.99 24.65 45.95 25.49 45.86C26.16 45.78 26.65 45.21 26.63 44.54C26.55 42.41 27.82 40.43 29.78 39.63C31.67 38.86 34.1 39.43 35.47 40.93C35.93 41.42 36.68 41.48 37.21 41.07C38.59 40 39.84 38.76 40.93 37.4C41.35 36.87 41.29 36.1 40.79 35.65C39.19 34.2 38.67 31.89 39.5 29.91C40.29 28.04 42.18 26.79 44.21 26.79L44.49 26.8C45.15 26.85 45.76 26.34 45.84 25.67C46.04 23.94 46.05 22.18 45.85 20.44ZM22.99 36.25C15.67 36.25 9.73 30.32 9.73 23C9.73 15.67 15.67 9.74 22.99 9.74C30.32 9.74 36.25 15.67 36.25 23C36.25 25.48 35.57 27.81 34.38 29.79L28.57 23.99C28.99 23 29.22 21.92 29.21 20.81C29.21 18.64 28.37 16.6 26.83 15.07C25.3 13.53 23.26 12.68 21.09 12.68C20.36 12.68 19.64 12.78 18.94 12.97C18.64 13.05 18.39 13.31 18.31 13.61C18.22 13.93 18.32 14.25 18.56 14.49C18.56 14.49 21.43 17.38 22.39 18.34C22.49 18.44 22.49 18.68 22.47 18.77L22.46 18.83C22.37 19.88 22.18 21.15 22.03 21.63C22.01 21.66 21.99 21.67 21.97 21.69C21.94 21.72 21.92 21.74 21.9 21.76C21.41 21.92 20.12 22.11 19.05 22.2L19.05 22.2L19.01 22.21C19 22.21 18.98 22.21 18.96 22.21C18.84 22.21 18.67 22.18 18.52 22.02C17.52 21.02 14.77 18.29 14.77 18.29C14.52 18.04 14.27 17.99 14.1 17.99C13.7 17.99 13.35 18.28 13.24 18.68C12.48 21.49 13.29 24.51 15.34 26.56C16.87 28.1 18.92 28.94 21.09 28.94C22.2 28.94 23.27 28.72 24.26 28.3L30.13 34.17C28.07 35.49 25.62 36.25 22.99 36.25Z" fill="#1E1B1B" fill-opacity="1.000000" fill-rule="nonzero"/>
</svg>
