<svg width="44.000000" height="49.000000" viewBox="0 0 44 49" fill="none" xmlns="http://www.w3.org/2000/svg" xmlns:xlink="http://www.w3.org/1999/xlink">
	<desc>
			Created with Pixso.
	</desc>
	<defs/>
	<path id="Vector" d="M0.25 27.01C0.46 26.74 0.78 26.59 1.12 26.59L5.4 26.59C6.46 23.74 7.84 20.95 9.4 19.89C14.81 16.25 29.17 16.25 34.59 19.89C36.15 20.95 37.52 23.74 38.59 26.59L42.87 26.59C43.21 26.59 43.53 26.74 43.74 27.01C43.96 27.28 44.04 27.63 43.97 27.97L43.34 31.11C43.23 31.65 42.77 32.03 42.23 32.03L40.97 32.03C42.19 33.48 42.78 35.29 42.79 37.11C42.8 39.36 41.96 41.39 40.44 42.83C40.42 42.85 40.4 42.86 40.39 42.87L40.39 47.27C40.39 48.22 39.63 49 38.7 49L34.75 49C33.82 49 33.06 48.22 33.06 47.27L33.06 45.5L10.93 45.5L10.93 47.27C10.93 48.22 10.17 49 9.24 49L5.29 49C4.36 49 3.6 48.22 3.6 47.27L3.6 42.96C1.98 41.44 1.21 39.35 1.2 37.27C1.19 35.39 1.81 33.5 3.11 32.03L1.76 32.03C1.22 32.03 0.76 31.65 0.65 31.11L0.02 27.97C-0.05 27.63 0.03 27.28 0.25 27.01ZM32.73 22.78C28.42 19.87 15.57 19.87 11.26 22.78C10.42 23.34 9.35 25.61 8.36 28.39L35.63 28.39C34.65 25.61 33.57 23.34 32.73 22.78ZM37.79 37.55C37.79 35.67 36.3 34.15 34.46 34.15C32.62 34.15 31.14 35.67 31.14 37.55C31.14 39.42 32.62 40.95 34.46 40.95C36.3 40.95 37.79 39.42 37.79 37.55ZM9.49 40.95C11.32 40.95 12.81 39.42 12.81 37.55C12.81 35.67 11.32 34.15 9.49 34.15C7.65 34.15 6.16 35.67 6.16 37.55C6.16 39.42 7.65 40.95 9.49 40.95Z" fill="#1E1B1B" fill-opacity="1.000000" fill-rule="nonzero"/>
	<mask id="mask482_1533" mask-type="alpha" maskUnits="userSpaceOnUse" x="6.962158" y="0.000000" width="23.121094" height="27.669067">
		<path id="Vector" d="M26.55 14.48C26.5 15.04 26.19 15.56 25.68 15.86C25.25 16.1 24.81 16.28 24.36 16.4C24.61 17.28 25.08 18.54 25.91 19.9C26.7 21.18 26.71 22.74 25.93 24.16C24.8 26.26 22.29 27.66 19.69 27.66C17.9 27.66 16.31 26.82 15.22 25.3C13.65 23.11 13.3 19.89 14.29 16.68C15.2 13.7 13.98 12.12 13.17 11.43C12.51 12.08 11.62 12.48 10.63 12.48C8.6 12.48 6.96 10.8 6.96 8.73C6.96 6.66 8.6 4.98 10.63 4.98C12.65 4.98 14.3 6.66 14.3 8.73C14.3 9.02 14.26 9.31 14.2 9.58C15.73 10.72 17.49 13.29 16.26 17.31C15.48 19.85 15.72 22.43 16.88 24.05C17.37 24.74 18.26 25.55 19.69 25.55C21.53 25.55 23.36 24.56 24.13 23.14C24.41 22.61 24.65 21.82 24.16 21.01C23.06 19.22 22.51 17.55 22.25 16.52C21.64 16.43 21.05 16.23 20.48 15.92C19.97 15.64 19.65 15.13 19.59 14.59C17.16 12.35 16.04 8.31 15.98 8.08C15.85 7.59 16.07 7.09 16.49 6.87C16.15 3.84 17.25 2.31 17.91 1.69C17.86 1.4 17.97 1.08 18.23 0.92L19.44 0.1C19.76 -0.11 20.16 0 20.33 0.34L20.91 1.49C21.09 1.84 20.93 2.2 20.57 2.31L19.19 2.73C18.84 2.83 18.43 2.66 18.23 2.35C17.68 2.94 16.89 4.26 17.16 6.76C17.54 6.84 17.86 7.11 17.97 7.51C18.3 8.73 19.25 11.23 20.67 12.73C21.12 12.55 21.64 12.56 22.1 12.81C22.4 12.98 22.69 13.06 22.99 13.07L23.05 13.07C23.37 13.06 23.68 12.97 24 12.79C24.45 12.53 24.96 12.51 25.41 12.67C26.79 11.16 27.73 8.71 28.05 7.51C28.16 7.12 28.48 6.84 28.85 6.76C29.13 4.26 28.34 2.94 27.79 2.35C27.59 2.66 27.17 2.83 26.83 2.73L25.45 2.31C25.09 2.2 24.93 1.84 25.11 1.49L25.68 0.34C25.86 0 26.26 -0.11 26.58 0.1L27.79 0.92C28.04 1.08 28.16 1.4 28.11 1.69C28.77 2.31 29.87 3.84 29.53 6.87C29.95 7.09 30.17 7.59 30.04 8.08C29.98 8.31 28.89 12.22 26.55 14.48ZM10.63 7.27C9.84 7.27 9.19 7.92 9.19 8.73C9.19 9.54 9.84 10.2 10.63 10.2C11.42 10.2 12.06 9.54 12.06 8.73C12.06 7.92 11.42 7.27 10.63 7.27Z" fill="#000000" fill-opacity="1.000000" fill-rule="nonzero"/>
	</mask>
	<g mask="url(#mask482_1533)">
		<path id="Rectangle 16" d="M51.51 -2.66L18.48 -2.66L15.09 6.21L18.48 19.53L51.51 19.53L51.51 -2.66Z" fill="#1E1B1B" fill-opacity="1.000000" fill-rule="nonzero"/>
	</g>
</svg>
