<svg width="42.000000" height="41.000000" viewBox="0 0 42 41" fill="none" xmlns="http://www.w3.org/2000/svg" xmlns:xlink="http://www.w3.org/1999/xlink">
	<desc>
			Created with Pixso.
	</desc>
	<defs/>
	<path id="Vector" d="M32.97 6.13C31.6 6.13 30.42 5.28 29.93 4.08L27.07 4.08L27.07 1.62L29.93 1.62C30.42 0.42 31.6 -0.43 32.97 -0.43C34.78 -0.43 36.25 1.04 36.25 2.85C36.25 4.66 34.78 6.13 32.97 6.13Z" fill="#1E1B1B" fill-opacity="1.000000" fill-rule="nonzero"/>
	<path id="Vector" d="M38.71 13.1C38.17 13.1 37.67 12.97 37.22 12.74L34.17 15.28C33.95 15.46 33.67 15.57 33.38 15.57L27.07 15.57L27.07 13.1L32.94 13.1L35.61 10.88C35.49 10.55 35.43 10.19 35.43 9.82C35.43 8.01 36.9 6.54 38.71 6.54C40.52 6.54 42 8.01 42 9.82C42 11.63 40.52 13.1 38.71 13.1Z" fill="#1E1B1B" fill-opacity="1.000000" fill-rule="nonzero"/>
	<path id="Vector" d="M38.71 23.36C37.34 23.36 36.16 22.51 35.67 21.31L27.07 21.31L27.07 18.85L35.67 18.85C36.16 17.65 37.34 16.8 38.71 16.8C40.52 16.8 42 18.27 42 20.08C42 21.89 40.52 23.36 38.71 23.36Z" fill="#1E1B1B" fill-opacity="1.000000" fill-rule="nonzero"/>
	<path id="Vector" d="M34.17 24.87L37.22 27.41C37.67 27.18 38.17 27.05 38.71 27.05C40.52 27.05 42 28.52 42 30.33C42 32.14 40.52 33.61 38.71 33.61C36.9 33.61 35.43 32.14 35.43 30.33C35.43 29.96 35.49 29.61 35.61 29.28L32.94 27.05L27.07 27.05L27.07 24.59L33.38 24.59C33.67 24.59 33.95 24.69 34.17 24.87Z" fill="#1E1B1B" fill-opacity="1.000000" fill-rule="nonzero"/>
	<path id="Vector" d="M32.97 34.02C34.78 34.02 36.25 35.49 36.25 37.3C36.25 39.11 34.78 40.58 32.97 40.58C31.6 40.58 30.42 39.74 29.93 38.53L27.07 38.53L27.07 36.07L29.93 36.07C30.42 34.87 31.6 34.02 32.97 34.02Z" fill="#1E1B1B" fill-opacity="1.000000" fill-rule="nonzero"/>
	<path id="Vector" d="M12.3 20.08C12.3 15.33 16.16 11.46 20.91 11.46C22.23 11.46 23.49 11.76 24.6 12.3L24.6 27.86C23.49 28.39 22.23 28.69 20.91 28.69C16.16 28.69 12.3 24.83 12.3 20.08Z" fill="#1E1B1B" fill-opacity="1.000000" fill-rule="nonzero"/>
	<path id="Vector" d="M23.37 41L18.45 41C17.77 41 17.22 40.44 17.22 39.76L17.22 38.16C14.91 37.69 12.7 36.78 10.73 35.48L9.6 36.61C9.12 37.09 8.34 37.09 7.86 36.61L4.38 33.13C3.9 32.65 3.9 31.87 4.38 31.39L5.51 30.26C4.21 28.29 3.3 26.08 2.83 23.77L1.23 23.77C0.55 23.77 0 23.22 0 22.54L0 17.62C0 16.94 0.55 16.39 1.23 16.39L2.83 16.39C3.3 14.08 4.21 11.87 5.51 9.9L4.38 8.77C4.15 8.54 4.02 8.22 4.02 7.9C4.02 7.57 4.15 7.26 4.38 7.03L7.86 3.55C8.34 3.07 9.12 3.07 9.6 3.55L10.73 4.68C12.7 3.38 14.91 2.46 17.22 1.99L17.22 0.39C17.22 -0.29 17.77 -0.84 18.45 -0.84L23.37 -0.84C24.05 -0.84 24.6 -0.29 24.6 0.39L24.6 9.64C23.45 9.23 22.21 9 20.91 9C14.81 9 9.84 13.97 9.84 20.08C9.84 26.18 14.81 31.15 20.91 31.15C22.21 31.15 23.45 30.93 24.6 30.52L24.6 39.76C24.6 40.44 24.05 41 23.37 41Z" fill="#1E1B1B" fill-opacity="1.000000" fill-rule="nonzero"/>
</svg>
