<svg width="37.000000" height="46.000000" viewBox="0 0 37 46" fill="none" xmlns="http://www.w3.org/2000/svg" xmlns:xlink="http://www.w3.org/1999/xlink">
	<desc>
			Created with Pixso.
	</desc>
	<defs/>
	<path id="Vector" d="M21.14 8.08L14.85 8.08C12.89 10.31 10.43 12.03 7.66 13.11L7.66 21.36C7.66 28.33 11.7 34.58 18 37.44C24.29 34.58 28.33 28.33 28.33 21.36L28.33 13.11C25.56 12.04 23.1 10.32 21.14 8.08ZM25.24 19.67L16.85 28.06C16.59 28.32 16.24 28.45 15.9 28.45C15.55 28.45 15.21 28.32 14.95 28.06L10.75 23.87C10.23 23.34 10.23 22.49 10.75 21.96C11.28 21.43 12.13 21.43 12.66 21.96L15.9 25.2L23.33 17.77C23.86 17.24 24.71 17.24 25.24 17.77C25.76 18.29 25.76 19.15 25.24 19.67ZM35.06 6.28C31.17 6.28 27.63 4.15 25.82 0.71C25.59 0.27 25.13 0 24.63 0L11.36 0C10.86 0 10.4 0.27 10.17 0.71C8.36 4.15 4.82 6.28 0.92 6.28C0.18 6.28 -0.42 6.89 -0.42 7.63L-0.42 21.36C-0.42 26.87 1.3 32.14 4.56 36.59C7.82 41.04 12.33 44.27 17.59 45.93C17.72 45.97 17.86 46 18 46C18.13 46 18.27 45.97 18.4 45.93C23.66 44.27 28.17 41.04 31.43 36.59C34.69 32.14 36.41 26.87 36.41 21.36L36.41 7.63C36.41 6.89 35.8 6.28 35.06 6.28ZM31.02 21.29C31.02 29.55 26.11 36.93 18.51 40.1C18.35 40.17 18.17 40.2 18 40.2C17.82 40.2 17.64 40.17 17.48 40.1C9.88 36.93 4.97 29.55 4.97 21.29L4.97 12.1C4.97 11.52 5.34 11 5.89 10.82C8.75 9.88 11.27 8.15 13.18 5.82C13.44 5.51 13.82 5.32 14.22 5.32L21.77 5.32C22.18 5.32 22.67 5.64 22.81 5.82C24.72 8.15 27.24 9.88 30.1 10.82C30.49 10.95 30.79 11.25 30.93 11.62C30.94 11.63 30.94 11.63 30.94 11.63C30.97 11.73 31 11.82 31.01 11.92C31.01 11.93 31.01 11.94 31.01 11.95C31.02 12 31.02 12.05 31.02 12.1L31.02 21.29Z" fill="#1E1B1B" fill-opacity="1.000000" fill-rule="nonzero"/>
</svg>
