<svg width="33.000000" height="46.000000" viewBox="0 0 33 46" fill="none" xmlns="http://www.w3.org/2000/svg" xmlns:xlink="http://www.w3.org/1999/xlink">
	<desc>
			Created with Pixso.
	</desc>
	<defs/>
	<path id="Vector" d="M32.17 18.19C32.17 17.85 32.04 17.51 31.8 17.26L21.02 5.81C20.76 5.54 20.41 5.39 20.04 5.39L6.56 5.39C6.18 5.39 5.81 5.55 5.55 5.84L0.16 11.9C-0.06 12.15 -0.18 12.47 -0.18 12.8L-0.18 36.56C-0.18 37.6 0.21 38.54 0.86 39.26C0.21 39.97 -0.18 40.92 -0.18 41.95C-0.18 44.18 1.64 46 3.87 46L28.12 46C30.35 46 32.17 44.18 32.17 41.95C32.17 40.92 31.78 39.97 31.13 39.26C31.78 38.54 32.17 37.6 32.17 36.56L32.17 18.19ZM16 37.91C13.77 37.91 11.95 36.09 11.95 33.87C11.95 33.31 12.11 32.3 13.48 29.94C14.17 28.74 14.86 27.75 14.89 27.71C15.14 27.35 15.55 27.13 16 27.13C16.44 27.13 16.85 27.34 17.1 27.71C17.13 27.75 17.82 28.74 18.51 29.94C19.88 32.3 20.04 33.31 20.04 33.87C20.04 36.09 18.22 37.91 16 37.91ZM25.93 22.01C25.41 22.5 24.75 22.74 24.08 22.74C23.36 22.74 22.65 22.46 22.12 21.89L15.93 15.32C14.91 14.23 14.96 12.53 16.04 11.51C17.13 10.49 18.84 10.54 19.85 11.62L26.04 18.2C27.07 19.28 27.01 20.99 25.93 22.01Z" fill="#1E1B1B" fill-opacity="1.000000" fill-rule="nonzero"/>
	<path id="Vector" d="M14.65 33.87C14.65 34.61 15.25 35.21 16 35.21C16.74 35.21 17.34 34.61 17.34 33.87C17.33 33.45 16.77 32.28 16 30.97C15.22 32.28 14.66 33.46 14.65 33.87Z" fill="#1E1B1B" fill-opacity="1.000000" fill-rule="nonzero"/>
	<path id="Vector" d="M14.65 0L6.56 0C5.82 0 5.21 0.6 5.21 1.34L5.21 2.69L16 2.69L16 1.34C16 0.6 15.39 0 14.65 0Z" fill="#1E1B1B" fill-opacity="1.000000" fill-rule="nonzero"/>
</svg>
