<svg width="46.000000" height="46.000000" viewBox="0 0 46 46" fill="none" xmlns="http://www.w3.org/2000/svg" xmlns:xlink="http://www.w3.org/1999/xlink">
	<desc>
			Created with Pixso.
	</desc>
	<defs/>
	<path id="Vector" d="M22.99 7.66C14.54 7.66 7.66 14.54 7.66 23C7.66 31.45 14.54 38.33 22.99 38.33C31.45 38.33 38.33 31.45 38.33 23C38.33 14.54 31.45 7.66 22.99 7.66ZM30.84 13.39C31.01 13.2 31.26 13.08 31.51 13.07C31.74 13.05 32.02 13.16 32.21 13.34C34.2 15.22 35.55 17.61 36.11 20.26C36.2 20.69 36 21.12 35.62 21.32C34.68 21.8 33.56 22.03 32.5 22.03C31.11 22.03 29.79 21.64 29.03 20.87C27.4 19.25 28.08 16.45 30.84 13.39ZM15.15 32.75C14.98 32.94 14.74 33.06 14.48 33.07C14.47 33.07 14.45 33.07 14.44 33.07C14.19 33.07 13.96 32.97 13.78 32.81C11.79 30.92 10.44 28.53 9.88 25.88C9.79 25.45 9.99 25.02 10.37 24.82C12.53 23.71 15.61 23.92 16.96 25.27C18.59 26.89 17.91 29.69 15.15 32.75ZM16.96 20.87C16.2 21.64 14.88 22.03 13.49 22.03C12.43 22.03 11.31 21.8 10.37 21.32C9.99 21.12 9.79 20.69 9.88 20.26C10.44 17.61 11.79 15.22 13.78 13.34C13.97 13.16 14.24 13.05 14.48 13.07C14.73 13.08 14.98 13.2 15.15 13.39C17.91 16.45 18.59 19.25 16.96 20.87ZM27.08 35.77C25.75 36.2 24.38 36.41 22.99 36.41C21.61 36.41 20.24 36.2 18.91 35.77C18.49 35.64 18.21 35.24 18.24 34.79C18.48 31.35 20.53 28.75 22.99 28.75C25.46 28.75 27.51 31.35 27.75 34.79C27.78 35.24 27.5 35.64 27.08 35.77ZM19.16 23C19.16 20.88 20.88 19.16 22.99 19.16C25.11 19.16 26.83 20.88 26.83 23C26.83 25.11 25.11 26.83 22.99 26.83C20.88 26.83 19.16 25.11 19.16 23ZM27.75 11.27C27.51 14.72 25.46 17.32 22.99 17.32C20.53 17.32 18.48 14.72 18.24 11.27C18.21 10.83 18.49 10.43 18.91 10.29C21.56 9.44 24.43 9.44 27.08 10.29C27.5 10.43 27.78 10.83 27.75 11.27ZM36.11 25.72C35.55 28.38 34.2 30.77 32.21 32.65C32.03 32.82 31.8 32.92 31.55 32.92C31.54 32.92 31.52 32.92 31.51 32.91C31.26 32.9 31.01 32.79 30.84 32.6C28.08 29.54 27.4 26.74 29.03 25.12C30.38 23.76 33.45 23.56 35.62 24.67C36 24.87 36.2 25.3 36.11 25.72Z" fill="#FFFFFF" fill-opacity="1.000000" fill-rule="nonzero"/>
	<path id="Vector" d="M23 0C10.31 0 0 10.31 0 23C0 35.68 10.31 46 23 46C35.68 46 46 35.68 46 23C46 10.31 35.68 0 23 0ZM23 40.25C13.48 40.25 5.75 32.51 5.75 23C5.75 13.48 13.48 5.75 23 5.75C32.51 5.75 40.25 13.48 40.25 23C40.25 32.51 32.51 40.25 23 40.25Z" fill="#FFFFFF" fill-opacity="1.000000" fill-rule="nonzero"/>
</svg>
