<svg width="122.000000" height="28.000000" viewBox="0 0 122 28" fill="none" xmlns="http://www.w3.org/2000/svg" xmlns:xlink="http://www.w3.org/1999/xlink">
	<desc>
			Created with Pixso.
	</desc>
	<defs/>
	<path id="Logo" d="M1.9 4.66L1.9 10.26C1.9 11.18 1.9 12.21 0 12.21L0 13.72L0 13.74L0 15.22C1.9 15.22 1.9 16.25 1.9 17.17L1.9 22.77C1.9 27.11 4.28 27.43 8.33 27.43L8.33 24.05C6.43 24.05 5.71 23.77 5.71 22.68L5.71 17.14C5.71 15.86 5.8 14.52 4.68 13.71C5.8 12.9 5.71 11.57 5.71 10.29L5.71 4.74C5.71 3.66 6.43 3.38 8.33 3.38L8.33 0C4.28 -0.01 1.9 0.31 1.9 4.66ZM12.62 4.48C11.58 5.36 11.06 6.62 11.06 8.26L11.06 9.74L8.88 9.74L8.88 12.83L11.06 12.83L11.06 24.03L15.78 24.03L15.78 12.83L18.71 12.83L18.71 9.74L15.78 9.74L15.78 8.69C15.78 8.15 15.94 7.74 16.26 7.45C16.57 7.16 17.02 7.01 17.61 7.01C17.9 7.01 19.36 7.02 19.36 7.02L19.36 3.43C19.36 3.43 16.74 3.4 16.37 3.4C15.23 3.4 13.66 3.59 12.62 4.48ZM21.44 7L26.17 7L26.17 3.43L21.44 3.43L21.44 7ZM21.44 24.03L26.17 24.03L26.17 9.74L21.44 9.74L21.44 24.03ZM37.83 9.48C36.93 9.48 36.12 9.68 35.4 10.08C34.68 10.48 34.07 11.04 33.57 11.75L33.39 9.74L28.97 9.74L28.97 24.03L33.67 24.03L33.67 13.76C33.91 13.49 34.2 13.29 34.54 13.14C34.88 12.99 35.27 12.91 35.71 12.91C36.4 12.91 36.93 13.08 37.29 13.42C37.65 13.76 37.83 14.34 37.83 15.16L37.83 24.03L42.54 24.03L42.54 15.17C42.54 13.19 42.12 11.75 41.29 10.84C40.46 9.93 39.3 9.48 37.83 9.48ZM56.79 16.99C55.9 16.31 54.54 15.79 52.7 15.45C51.53 15.24 50.75 15 50.36 14.73C49.98 14.47 49.78 14.15 49.78 13.77C49.78 13.37 49.95 13.05 50.29 12.79C50.62 12.54 51.03 12.41 51.53 12.41C52.2 12.41 52.68 12.56 52.98 12.85C53.29 13.14 53.44 13.56 53.44 14.13L58.01 14.13L58.04 14.05C58.1 12.7 57.53 11.6 56.34 10.75C55.15 9.9 53.55 9.48 51.54 9.48C49.64 9.48 48.13 9.92 47.01 10.79C45.89 11.67 45.34 12.74 45.34 13.99C45.34 15.18 45.78 16.12 46.67 16.81C47.57 17.49 48.89 18 50.65 18.33C51.76 18.55 52.53 18.79 52.96 19.07C53.38 19.35 53.59 19.67 53.59 20.02C53.59 20.45 53.43 20.78 53.1 21.01C52.78 21.25 52.3 21.36 51.67 21.36C50.9 21.36 50.32 21.21 49.9 20.91C49.49 20.62 49.27 20.13 49.26 19.45L44.99 19.45L44.96 19.53C44.91 20.74 45.47 21.84 46.67 22.83C47.86 23.82 49.49 24.31 51.54 24.31C53.52 24.31 55.11 23.89 56.32 23.06C57.52 22.23 58.12 21.17 58.12 19.88C58.12 18.63 57.68 17.67 56.79 16.99ZM73.61 18.02L73.53 18.02L71.05 9.74L68.08 9.74L65.63 18.09L65.54 18.09L63.88 9.74L59.53 9.74L63.09 24.03L67.06 24.03L69.53 16.45L69.61 16.45L72.07 24.03L76.06 24.03L79.6 9.74L75.25 9.74L73.61 18.02ZM87.6 9.48C85.36 9.47 83.63 10.16 82.43 11.53C81.23 12.91 80.63 14.69 80.63 16.86L80.63 17.36C80.63 19.35 81.29 21.01 82.61 22.33C83.94 23.65 85.71 24.31 87.93 24.31C89.13 24.31 90.25 24.16 91.3 23.85C92.34 23.55 93.2 23.17 93.86 22.71L92.74 19.99C91.92 20.32 91.25 20.55 90.71 20.68C90.18 20.81 89.46 20.88 88.57 20.88C87.69 20.88 86.98 20.64 86.45 20.17C85.92 19.7 85.61 19.1 85.5 18.37L85.53 18.29L94.15 18.29L94.15 15.95C94.15 13.96 93.57 12.39 92.41 11.22C91.25 10.06 89.64 9.48 87.6 9.48ZM89.55 15.5L85.49 15.5L85.45 15.44C85.53 14.67 85.73 14.06 86.07 13.6C86.41 13.14 86.92 12.91 87.6 12.91C88.27 12.91 88.76 13.11 89.08 13.5C89.39 13.88 89.55 14.44 89.55 15.16L89.55 15.5ZM103.41 9.48C101.17 9.47 99.45 10.16 98.25 11.53C97.04 12.91 96.44 14.69 96.44 16.86L96.44 17.36C96.44 19.35 97.1 21.01 98.43 22.33C99.75 23.65 101.53 24.31 103.75 24.31C104.95 24.31 106.07 24.16 107.12 23.85C108.16 23.55 109.01 23.17 109.67 22.71L108.56 19.99C107.74 20.32 107.06 20.55 106.53 20.68C105.99 20.81 105.28 20.88 104.39 20.88C103.51 20.88 102.8 20.64 102.27 20.17C101.74 19.7 101.42 19.1 101.32 18.37L101.35 18.29L109.97 18.29L109.97 15.95C109.97 13.96 109.38 12.39 108.22 11.22C107.06 10.06 105.46 9.48 103.41 9.48ZM105.36 15.5L101.31 15.5L101.27 15.44C101.34 14.67 101.55 14.06 101.89 13.6C102.22 13.14 102.73 12.91 103.41 12.91C104.08 12.91 104.58 13.11 104.89 13.5C105.21 13.88 105.37 14.44 105.37 15.16L105.37 15.5L105.36 15.5L105.36 15.5ZM119.65 20.33C119.06 20.33 118.61 20.18 118.29 19.89C117.98 19.6 117.82 19.19 117.82 18.65L117.82 12.86L120.27 12.86L120.27 9.77L117.82 9.77L117.82 3.41L113.09 3.41L113.09 9.77L110.92 9.77L110.92 12.86L113.09 12.86L113.09 19.07C113.09 20.72 113.61 21.98 114.66 22.86C115.7 23.74 117.26 23.94 118.41 23.94C118.78 23.94 121.4 23.91 121.4 23.91L121.4 20.32C121.4 20.32 119.94 20.33 119.65 20.33Z" fill="#1E1B1B" fill-opacity="1.000000" fill-rule="nonzero"/>
</svg>
