<svg width="121.000000" height="27.000000" viewBox="0 0 121 27" fill="none" xmlns="http://www.w3.org/2000/svg" xmlns:xlink="http://www.w3.org/1999/xlink">
	<desc>
			Created with Pixso.
	</desc>
	<defs/>
	<path id="Logo" d="M1.89 4.58L1.89 10.09C1.89 11 1.89 12.01 0 12.01L0 13.5L0 13.52L0 14.98C1.89 14.98 1.89 15.99 1.89 16.9L1.89 22.41C1.89 26.68 4.27 27 8.3 27L8.3 23.67C6.4 23.67 5.69 23.39 5.69 22.33L5.69 16.87C5.69 15.61 5.78 14.29 4.67 13.5C5.78 12.7 5.69 11.38 5.69 10.12L5.69 4.67C5.69 3.6 6.4 3.32 8.3 3.32L8.3 0C4.27 -0.01 1.89 0.3 1.89 4.58ZM12.57 4.4C11.54 5.27 11.02 6.51 11.02 8.13L11.02 9.59L8.85 9.59L8.85 12.63L11.02 12.63L11.02 23.65L15.73 23.65L15.73 12.63L18.65 12.63L18.65 9.59L15.73 9.59L15.73 8.55C15.73 8.02 15.89 7.62 16.2 7.33C16.52 7.04 16.96 6.9 17.55 6.9C17.84 6.9 19.3 6.91 19.3 6.91L19.3 3.38C19.3 3.38 16.68 3.35 16.31 3.35C15.17 3.35 13.61 3.54 12.57 4.4ZM21.37 6.89L26.08 6.89L26.08 3.38L21.37 3.38L21.37 6.89ZM21.37 23.65L26.08 23.65L26.08 9.59L21.37 9.59L21.37 23.65ZM37.7 9.33C36.81 9.33 36 9.53 35.28 9.92C34.56 10.31 33.95 10.86 33.46 11.56L33.28 9.59L28.87 9.59L28.87 23.65L33.56 23.65L33.56 13.54C33.8 13.28 34.09 13.08 34.43 12.93C34.76 12.78 35.15 12.71 35.59 12.71C36.28 12.71 36.81 12.88 37.16 13.21C37.52 13.54 37.7 14.11 37.7 14.92L37.7 23.65L42.4 23.65L42.4 14.93C42.4 12.98 41.98 11.56 41.15 10.67C40.32 9.78 39.17 9.33 37.7 9.33ZM56.6 16.72C55.72 16.05 54.36 15.54 52.52 15.2C51.35 15 50.58 14.76 50.19 14.5C49.81 14.24 49.62 13.92 49.62 13.55C49.62 13.16 49.78 12.84 50.12 12.59C50.45 12.34 50.86 12.21 51.35 12.21C52.02 12.21 52.5 12.36 52.81 12.64C53.11 12.93 53.26 13.35 53.26 13.9L57.82 13.9L57.84 13.83C57.9 12.5 57.33 11.42 56.15 10.58C54.96 9.75 53.37 9.33 51.37 9.33C49.47 9.33 47.96 9.76 46.85 10.62C45.74 11.49 45.18 12.53 45.18 13.77C45.18 14.94 45.63 15.87 46.52 16.54C47.41 17.22 48.73 17.71 50.48 18.04C51.59 18.25 52.36 18.5 52.78 18.77C53.2 19.04 53.41 19.35 53.41 19.7C53.41 20.12 53.25 20.45 52.92 20.68C52.6 20.91 52.12 21.03 51.49 21.03C50.73 21.03 50.15 20.88 49.74 20.58C49.32 20.29 49.11 19.81 49.09 19.14L44.84 19.14L44.81 19.22C44.75 20.41 45.32 21.5 46.51 22.47C47.7 23.44 49.32 23.92 51.37 23.92C53.34 23.92 54.93 23.51 56.13 22.69C57.33 21.87 57.93 20.83 57.93 19.57C57.93 18.34 57.48 17.39 56.6 16.72ZM73.37 17.74L73.28 17.74L70.81 9.59L67.85 9.59L65.4 17.8L65.32 17.8L63.67 9.59L59.33 9.59L62.88 23.65L66.84 23.65L69.3 16.19L69.38 16.19L71.82 23.65L75.8 23.65L79.33 9.59L74.99 9.59L73.37 17.74ZM87.3 9.33C85.07 9.32 83.35 9.99 82.15 11.35C80.95 12.71 80.35 14.45 80.35 16.59L80.35 17.09C80.35 19.05 81.01 20.67 82.33 21.97C83.65 23.28 85.42 23.92 87.63 23.92C88.83 23.92 89.95 23.78 90.99 23.48C92.03 23.18 92.88 22.8 93.54 22.35L92.43 19.67C91.61 20 90.94 20.22 90.41 20.35C89.87 20.48 89.16 20.55 88.27 20.55C87.39 20.55 86.69 20.32 86.16 19.85C85.63 19.39 85.32 18.8 85.22 18.08L85.24 18L93.83 18L93.83 15.7C93.83 13.74 93.25 12.19 92.1 11.04C90.94 9.9 89.34 9.33 87.3 9.33ZM89.25 15.26L85.2 15.26L85.16 15.19C85.24 14.44 85.44 13.83 85.78 13.38C86.12 12.94 86.63 12.71 87.3 12.71C87.97 12.71 88.46 12.9 88.78 13.28C89.09 13.66 89.25 14.21 89.25 14.92L89.25 15.26ZM103.06 9.33C100.83 9.32 99.12 9.99 97.92 11.35C96.72 12.71 96.12 14.45 96.12 16.59L96.12 17.09C96.12 19.05 96.78 20.67 98.1 21.97C99.42 23.28 101.18 23.92 103.4 23.92C104.59 23.92 105.71 23.78 106.75 23.48C107.8 23.18 108.65 22.8 109.3 22.35L108.19 19.67C107.38 20 106.7 20.22 106.17 20.35C105.64 20.48 104.93 20.55 104.04 20.55C103.16 20.55 102.45 20.32 101.92 19.85C101.4 19.39 101.08 18.8 100.98 18.08L101.01 18L109.59 18L109.59 15.7C109.59 13.74 109.02 12.19 107.86 11.04C106.7 9.9 105.1 9.33 103.06 9.33ZM105.01 15.26L100.97 15.26L100.92 15.19C101 14.44 101.21 13.83 101.54 13.38C101.88 12.94 102.39 12.71 103.06 12.71C103.73 12.71 104.22 12.9 104.54 13.28C104.85 13.66 105.01 14.21 105.01 14.92L105.01 15.26L105.01 15.26L105.01 15.26ZM119.24 20C118.66 20 118.21 19.86 117.9 19.58C117.58 19.29 117.42 18.88 117.42 18.35L117.42 12.66L119.87 12.66L119.87 9.61L117.42 9.61L117.42 3.36L112.71 3.36L112.71 9.61L110.54 9.61L110.54 12.66L112.71 12.66L112.71 18.77C112.71 20.39 113.23 21.63 114.27 22.5C115.31 23.37 116.87 23.56 118.01 23.56C118.38 23.56 121 23.53 121 23.53L121 20C121 20 119.53 20 119.24 20Z" fill="#FFFFFF" fill-opacity="1.000000" fill-rule="nonzero"/>
</svg>
