<svg width="185.000000" height="36.000000" viewBox="0 0 185 36" fill="none" xmlns="http://www.w3.org/2000/svg" xmlns:xlink="http://www.w3.org/1999/xlink">
	<desc>
			Created with Pixso.
	</desc>
	<defs/>
	<path id="Star 1" d="M15.36 4.82L13.07 9.03C12.64 9.82 11.87 10.37 10.99 10.54L6.28 11.42C3.95 11.86 3.02 14.7 4.66 16.43L7.94 19.91C8.56 20.56 8.85 21.46 8.74 22.36L8.12 27.1C7.82 29.46 10.24 31.22 12.38 30.2L16.71 28.15C17.52 27.76 18.47 27.76 19.28 28.15L23.61 30.2C25.75 31.22 28.17 29.46 27.87 27.1L27.25 22.36C27.14 21.46 27.43 20.56 28.05 19.91L31.33 16.43C32.97 14.7 32.04 11.86 29.71 11.42L25 10.54C24.12 10.37 23.35 9.82 22.92 9.03L20.63 4.82C19.49 2.74 16.5 2.74 15.36 4.82Z" fill="#FFB648" fill-opacity="1.000000" fill-rule="evenodd"/>
	<path id="Star 2" d="M53.36 4.82L51.07 9.03C50.64 9.82 49.87 10.37 48.99 10.54L44.28 11.42C41.95 11.86 41.02 14.7 42.66 16.43L45.94 19.91C46.56 20.56 46.85 21.46 46.74 22.36L46.12 27.1C45.82 29.46 48.24 31.22 50.38 30.2L54.71 28.15C55.52 27.76 56.47 27.76 57.28 28.15L61.61 30.2C63.75 31.22 66.17 29.46 65.87 27.1L65.25 22.36C65.14 21.46 65.43 20.56 66.05 19.91L69.33 16.43C70.97 14.7 70.04 11.86 67.71 11.42L63 10.54C62.12 10.37 61.35 9.82 60.92 9.03L58.63 4.82C57.49 2.74 54.5 2.74 53.36 4.82Z" fill="#FFB648" fill-opacity="1.000000" fill-rule="evenodd"/>
	<path id="Star 3" d="M90.36 4.82L88.07 9.03C87.64 9.82 86.87 10.37 85.99 10.54L81.28 11.42C78.95 11.86 78.02 14.7 79.66 16.43L82.94 19.91C83.56 20.56 83.85 21.46 83.74 22.36L83.12 27.1C82.82 29.46 85.24 31.22 87.38 30.2L91.71 28.15C92.52 27.76 93.47 27.76 94.28 28.15L98.61 30.2C100.75 31.22 103.17 29.46 102.87 27.1L102.25 22.36C102.14 21.46 102.43 20.56 103.05 19.91L106.34 16.43C107.97 14.7 107.04 11.86 104.71 11.42L100 10.54C99.12 10.37 98.35 9.82 97.92 9.03L95.63 4.82C94.49 2.74 91.5 2.74 90.36 4.82Z" fill="#FFB648" fill-opacity="1.000000" fill-rule="evenodd"/>
	<path id="Star 4" d="M128.36 4.82L126.07 9.03C125.64 9.82 124.87 10.37 123.99 10.54L119.28 11.42C116.95 11.86 116.02 14.7 117.66 16.43L120.94 19.91C121.56 20.56 121.86 21.46 121.74 22.36L121.12 27.1C120.82 29.46 123.24 31.22 125.38 30.2L129.71 28.15C130.52 27.76 131.47 27.76 132.28 28.15L136.61 30.2C138.75 31.22 141.17 29.46 140.87 27.1L140.25 22.36C140.14 21.46 140.43 20.56 141.05 19.91L144.34 16.43C145.97 14.7 145.04 11.86 142.71 11.42L138 10.54C137.12 10.37 136.35 9.82 135.92 9.03L133.63 4.82C132.49 2.74 129.5 2.74 128.36 4.82Z" fill="#FFB648" fill-opacity="1.000000" fill-rule="evenodd"/>
	<path id="Star 5" d="M164.36 4.82L162.07 9.03C161.64 9.82 160.87 10.37 159.99 10.54L155.28 11.42C152.95 11.86 152.02 14.7 153.66 16.43L156.94 19.91C157.56 20.56 157.86 21.46 157.74 22.36L157.12 27.1C156.82 29.46 159.24 31.22 161.38 30.2L165.71 28.15C166.52 27.76 167.47 27.76 168.28 28.15L172.61 30.2C174.75 31.22 177.17 29.46 176.87 27.1L176.25 22.36C176.14 21.46 176.43 20.56 177.05 19.91L180.34 16.43C181.97 14.7 181.04 11.86 178.71 11.42L174 10.54C173.12 10.37 172.35 9.82 171.92 9.03L169.63 4.82C168.49 2.74 165.5 2.74 164.36 4.82Z" fill="#D7D1C7" fill-opacity="1.000000" fill-rule="evenodd"/>
	<mask id="mask482_1642" mask-type="alpha" maskUnits="userSpaceOnUse" x="149.000000" y="0.000000" width="36.000000" height="36.000000">
		<path id="Star 5" d="M164.36 4.82L162.07 9.03C161.64 9.82 160.87 10.37 159.99 10.54L155.28 11.42C152.95 11.86 152.02 14.7 153.66 16.43L156.94 19.91C157.56 20.56 157.86 21.46 157.74 22.36L157.12 27.1C156.82 29.46 159.24 31.22 161.38 30.2L165.71 28.15C166.52 27.76 167.47 27.76 168.28 28.15L172.61 30.2C174.75 31.22 177.17 29.46 176.87 27.1L176.25 22.36C176.14 21.46 176.43 20.56 177.05 19.91L180.34 16.43C181.97 14.7 181.04 11.86 178.71 11.42L174 10.54C173.12 10.37 172.35 9.82 171.92 9.03L169.63 4.82C168.49 2.74 165.5 2.74 164.36 4.82Z" fill="#D7D1C7" fill-opacity="1.000000" fill-rule="evenodd"/>
	</mask>
	<g mask="url(#mask482_1642)">
		<rect id="Rectangle 1308" x="166.000000" y="38.000000" width="16.000004" height="43.000000" transform="rotate(-180 166.000000 38.000000)" fill="#FFB648" fill-opacity="1.000000"/>
	</g>
</svg>
