<svg width="225.000000" height="126.000000" viewBox="0 0 225 126" fill="none" xmlns="http://www.w3.org/2000/svg" xmlns:xlink="http://www.w3.org/1999/xlink">
	<desc>
			Created with Pixso.
	</desc>
	<defs>
		<clipPath id="clip482_1444">
			<rect id="logo-1 1" width="225.598495" height="126.672951" transform="translate(-0.598633 -0.793701)" fill="white" fill-opacity="0"/>
		</clipPath>
	</defs>
	<rect id="logo-1 1" width="225.598495" height="126.672951" transform="translate(-0.598633 -0.793701)" fill="#FFFFFF" fill-opacity="0"/>
	<g clip-path="url(#clip482_1444)">
		<path id="Vector" d="M77.45 55.27L81.52 55.27L81.52 71.73L77.45 71.73L77.45 55.27ZM83.15 65.54C83.15 61.46 85.69 59.02 89.49 59.02C93.3 59.02 95.84 61.46 95.84 65.54C95.84 69.62 93.39 72.09 89.49 72.09C85.6 72.09 83.15 69.71 83.15 65.54ZM91.8 65.54C91.8 63.3 90.93 61.98 89.53 61.98C88.14 61.98 87.27 63.25 87.27 65.54C87.27 67.83 88.14 69.09 89.53 69.09C90.93 69.09 91.83 67.83 91.83 65.55L91.8 65.54ZM97.46 72.58L101.4 72.58C101.58 73.01 101.89 73.36 102.29 73.59C102.69 73.82 103.15 73.91 103.61 73.85C105.17 73.85 105.98 73.01 105.98 71.77L105.98 69.49L105.99 69.49C105.65 70.2 105.11 70.79 104.43 71.19C103.75 71.59 102.97 71.77 102.18 71.71C99.2 71.71 97.22 69.44 97.22 65.54C97.22 61.64 99.11 59.21 102.3 59.21C103.1 59.16 103.9 59.37 104.58 59.8C105.26 60.23 105.8 60.86 106.11 61.6L105.99 61.6L105.99 59.31L110.03 59.31L110.03 71.65C110.03 74.62 107.39 76.48 103.5 76.48C99.98 76.47 97.72 74.86 97.49 72.6L97.46 72.58ZM105.99 65.54C105.99 63.55 105.08 62.3 103.63 62.3C102.18 62.3 101.3 63.56 101.3 65.54C101.3 67.52 102.17 68.68 103.63 68.68C105.09 68.68 105.99 67.6 105.99 65.54ZM111.64 65.54C111.64 61.46 114.18 59.02 117.98 59.02C121.79 59.02 124.33 61.46 124.33 65.54C124.33 69.62 121.87 72.09 117.98 72.09C114.1 72.09 111.66 69.71 111.66 65.54L111.64 65.54ZM120.29 65.54C120.29 63.3 119.4 61.98 118.02 61.98C116.64 61.98 115.76 63.25 115.76 65.54C115.76 67.83 116.62 69.09 118.02 69.09C119.42 69.09 120.32 67.83 120.32 65.55L120.29 65.54ZM125.98 56.31C125.96 55.89 126.07 55.48 126.28 55.13C126.5 54.78 126.82 54.5 127.2 54.32C127.58 54.15 128 54.1 128.41 54.17C128.82 54.24 129.2 54.43 129.5 54.72C129.8 55 130 55.37 130.09 55.78C130.18 56.18 130.14 56.61 129.99 56.99C129.83 57.37 129.57 57.7 129.22 57.94C128.88 58.17 128.47 58.29 128.06 58.29C127.79 58.3 127.53 58.26 127.28 58.16C127.03 58.06 126.81 57.92 126.62 57.74C126.43 57.55 126.27 57.33 126.17 57.09C126.06 56.85 126.01 56.58 126 56.32L125.98 56.31ZM125.98 59.3L130.1 59.3L130.1 71.79L126.04 71.79L125.98 59.3ZM144.94 65.54C144.94 69.61 143.11 71.96 140 71.96C139.2 72.01 138.41 71.82 137.73 71.4C137.05 70.99 136.51 70.37 136.19 69.64L136.12 69.64L136.12 75.8L132.04 75.8L132.04 59.33L136.09 59.33L136.09 61.56L136.17 61.56C136.48 60.82 137.01 60.19 137.69 59.76C138.37 59.33 139.17 59.12 139.97 59.16C143.17 59.13 145.01 61.47 145.01 65.55L144.94 65.54ZM140.79 65.54C140.79 63.56 139.86 62.28 138.42 62.28C136.99 62.28 136.09 63.55 136.08 65.54C136.07 67.53 136.99 68.78 138.42 68.78C139.86 68.78 140.86 67.6 140.86 65.55L140.79 65.54ZM151.89 59C155.3 59 157.42 60.61 157.45 63.2L153.73 63.2C153.73 62.3 152.98 61.74 151.86 61.74C150.75 61.74 150.21 62.17 150.21 62.82C150.21 63.46 150.68 63.67 151.62 63.86L154.24 64.39C156.78 64.92 157.79 65.93 157.79 67.82C157.79 70.35 155.44 72.08 151.95 72.08C148.46 72.08 146.19 70.4 146.03 67.86L149.97 67.86C150.09 68.78 150.82 69.33 152.02 69.33C153.21 69.33 153.77 68.95 153.77 68.28C153.77 67.6 153.39 67.49 152.41 67.29L150.05 66.79C147.6 66.27 146.32 65 146.32 63.08C146.39 60.6 148.53 59.02 151.97 59.02L151.89 59ZM171.43 71.77L167.49 71.77L167.49 69.43L167.41 69.43C167.19 70.21 166.71 70.89 166.05 71.37C165.38 71.84 164.58 72.07 163.77 72.03C163.15 72.05 162.54 71.94 161.98 71.7C161.41 71.47 160.89 71.12 160.47 70.68C160.05 70.23 159.73 69.71 159.52 69.13C159.32 68.55 159.24 67.94 159.29 67.33L159.29 59.31L163.36 59.31L163.36 66.45C163.36 67.92 164.14 68.72 165.4 68.72C165.7 68.72 166 68.65 166.27 68.53C166.54 68.4 166.78 68.22 166.97 67.99C167.16 67.77 167.31 67.5 167.39 67.22C167.47 66.93 167.49 66.63 167.45 66.34L167.45 59.31L171.51 59.31L171.43 71.77ZM173.4 59.3L177.36 59.3L177.36 61.7L177.45 61.7C177.67 60.93 178.13 60.25 178.78 59.78C179.42 59.3 180.21 59.05 181.01 59.07C181.82 59 182.62 59.23 183.26 59.72C183.91 60.21 184.34 60.92 184.49 61.71L184.67 61.71C184.92 60.92 185.43 60.22 186.12 59.75C186.81 59.27 187.64 59.03 188.47 59.07C189.03 59.05 189.59 59.14 190.1 59.35C190.62 59.56 191.09 59.87 191.47 60.27C191.86 60.67 192.16 61.15 192.35 61.67C192.54 62.2 192.61 62.76 192.57 63.31L192.57 71.79L188.47 71.79L188.47 64.35C188.47 63.08 187.88 62.37 186.72 62.37C186.47 62.37 186.21 62.42 185.98 62.52C185.74 62.63 185.53 62.78 185.36 62.97C185.19 63.16 185.07 63.39 184.99 63.63C184.92 63.88 184.9 64.13 184.93 64.39L184.93 71.79L181.05 71.79L181.05 64.31C181.05 63.04 180.43 62.37 179.31 62.37C179.05 62.37 178.8 62.42 178.56 62.53C178.32 62.63 178.11 62.79 177.94 62.98C177.77 63.17 177.64 63.4 177.56 63.65C177.49 63.9 177.46 64.16 177.5 64.41L177.5 71.79L173.42 71.79L173.4 59.3Z" fill="#1E1B1B" fill-opacity="1.000000" fill-rule="nonzero"/>
		<path id="Vector" d="M69.39 56.34C69.39 53.82 68.63 51.36 67.21 49.28C65.78 47.2 63.76 45.59 61.4 44.68C59.05 43.77 56.47 43.58 54.01 44.15C51.55 44.72 49.33 46.02 47.62 47.88L31.78 47.88L31.78 81.25L65.22 81.25L65.22 65.65C66.53 64.48 67.58 63.05 68.3 61.44C69.02 59.84 69.39 58.1 69.39 56.34ZM62.96 56.34C62.96 57.55 62.61 58.73 61.93 59.74C61.26 60.75 60.31 61.53 59.19 61.99C58.08 62.46 56.84 62.58 55.66 62.35C54.47 62.11 53.38 61.53 52.52 60.68C51.67 59.82 51.08 58.74 50.84 57.55C50.61 56.37 50.73 55.14 51.19 54.02C51.65 52.91 52.44 51.95 53.44 51.28C54.45 50.61 55.63 50.25 56.84 50.25C58.46 50.25 60.02 50.89 61.16 52.03C62.31 53.18 62.96 54.73 62.96 56.34ZM58.78 74.83L38.21 74.83L38.21 54.3L44.48 54.3C44.36 54.98 44.3 55.66 44.29 56.34C44.3 59.67 45.62 62.85 47.97 65.2C50.33 67.55 53.52 68.87 56.84 68.87C57.49 68.87 58.14 68.81 58.78 68.71L58.78 74.83Z" fill="#1E1B1B" fill-opacity="1.000000" fill-rule="nonzero"/>
	</g>
</svg>
