<svg width="224.000000" height="125.000000" viewBox="0 0 224 125" fill="none" xmlns="http://www.w3.org/2000/svg" xmlns:xlink="http://www.w3.org/1999/xlink">
	<desc>
			Created with Pixso.
	</desc>
	<defs>
		<clipPath id="clip482_1403">
			<rect id="logo-3" width="224.392090" height="125.466537" transform="translate(-0.595703 -0.793701)" fill="white" fill-opacity="0"/>
		</clipPath>
	</defs>
	<rect id="logo-3" width="224.392090" height="125.466537" transform="translate(-0.595703 -0.793701)" fill="#FFFFFF" fill-opacity="0"/>
	<g clip-path="url(#clip482_1403)">
		<path id="Vector" d="M85.08 71.21C84.33 71.25 83.58 71.04 82.97 70.6C82.71 70.42 82.51 70.17 82.37 69.88C82.23 69.59 82.16 69.28 82.17 68.96L82.17 57.33C82.17 57.28 82.17 57.23 82.19 57.18C82.21 57.14 82.23 57.09 82.27 57.06C82.3 57.02 82.35 57 82.39 56.98C82.44 56.97 82.49 56.96 82.54 56.97L84.66 56.97C84.9 56.97 85.01 57.09 85.01 57.33L85.01 68.06C85.01 68.53 85.23 68.77 85.67 68.77C85.86 68.78 86.04 68.76 86.23 68.71C86.48 68.71 86.62 68.79 86.63 69.01L86.82 70.58C86.83 70.63 86.83 70.67 86.82 70.72C86.81 70.76 86.78 70.81 86.76 70.84C86.73 70.88 86.69 70.91 86.65 70.93C86.61 70.95 86.56 70.97 86.52 70.97C86.05 71.12 85.57 71.2 85.08 71.21Z" fill="#1E1B1B" fill-opacity="1.000000" fill-rule="nonzero"/>
		<path id="Vector" d="M97 69.86C95.94 70.74 94.6 71.22 93.22 71.22C91.84 71.22 90.5 70.74 89.43 69.86C88.49 68.92 87.97 67.66 87.97 66.33C87.97 65.01 88.49 63.74 89.43 62.8C90.5 61.93 91.84 61.45 93.22 61.45C94.6 61.45 95.94 61.93 97 62.8C97.92 63.75 98.43 65.01 98.43 66.33C98.43 67.64 97.92 68.9 97 69.85L97 69.86ZM91.43 68.21C91.92 68.65 92.56 68.9 93.23 68.9C93.9 68.9 94.54 68.65 95.04 68.21C95.48 67.7 95.73 67.04 95.73 66.36C95.73 65.69 95.48 65.03 95.04 64.52C94.54 64.07 93.9 63.83 93.23 63.83C92.56 63.83 91.92 64.07 91.43 64.52C90.98 65.03 90.73 65.69 90.73 66.36C90.73 67.04 90.98 67.7 91.43 68.21Z" fill="#1E1B1B" fill-opacity="1.000000" fill-rule="nonzero"/>
		<path id="Vector" d="M110.11 61.77C110.35 61.77 110.46 61.9 110.46 62.14L110.46 71.13C110.48 71.74 110.37 72.34 110.13 72.9C109.88 73.46 109.52 73.96 109.06 74.36C108.04 75.22 106.73 75.67 105.39 75.61C104.18 75.65 102.98 75.32 101.97 74.67C101.53 74.39 101.16 74.02 100.88 73.59C100.59 73.15 100.4 72.67 100.31 72.16C100.31 71.91 100.31 71.8 100.65 71.8L102.77 71.8C102.86 71.8 102.95 71.83 103.02 71.88C103.1 71.93 103.16 72 103.19 72.08C103.33 72.47 103.6 72.78 103.96 72.98C104.4 73.2 104.88 73.31 105.37 73.3C105.67 73.32 105.97 73.28 106.25 73.18C106.53 73.08 106.78 72.92 107 72.72C107.2 72.52 107.36 72.27 107.46 72C107.56 71.73 107.61 71.44 107.59 71.16L107.59 70.37C106.84 70.92 105.91 71.21 104.97 71.18C104.31 71.21 103.65 71.1 103.04 70.86C102.42 70.63 101.86 70.27 101.38 69.81C100.47 68.88 99.97 67.63 99.97 66.33C99.97 65.02 100.47 63.77 101.38 62.84C101.86 62.39 102.42 62.03 103.04 61.8C103.65 61.57 104.31 61.46 104.97 61.48C105.94 61.46 106.89 61.76 107.66 62.35L107.66 62.15C107.65 62.1 107.66 62.05 107.67 62.01C107.69 61.96 107.71 61.92 107.75 61.88C107.78 61.85 107.82 61.82 107.87 61.8C107.91 61.79 107.96 61.78 108.01 61.78L110.11 61.77ZM105.21 68.95C105.53 68.96 105.86 68.9 106.16 68.77C106.46 68.64 106.72 68.45 106.94 68.21C107.36 67.67 107.59 67.01 107.59 66.33C107.59 65.64 107.36 64.98 106.94 64.44C106.72 64.21 106.46 64.02 106.16 63.89C105.86 63.77 105.54 63.71 105.22 63.72C104.89 63.71 104.57 63.77 104.26 63.89C103.96 64.02 103.69 64.21 103.47 64.46C103 64.97 102.76 65.65 102.79 66.34C102.76 67.02 103 67.69 103.45 68.21C103.68 68.45 103.95 68.64 104.25 68.77C104.55 68.9 104.88 68.96 105.21 68.95Z" fill="#1E1B1B" fill-opacity="1.000000" fill-rule="nonzero"/>
		<path id="Vector" d="M121.35 69.86C120.28 70.73 118.95 71.21 117.57 71.21C116.18 71.21 114.85 70.73 113.78 69.86C112.86 68.91 112.35 67.65 112.35 66.33C112.35 65.02 112.86 63.75 113.78 62.8C114.85 61.93 116.19 61.46 117.57 61.46C118.95 61.46 120.28 61.93 121.35 62.8C122.27 63.75 122.78 65.01 122.78 66.33C122.78 67.64 122.27 68.9 121.35 69.85L121.35 69.86ZM115.76 68.21C116 68.44 116.29 68.62 116.6 68.73C116.91 68.85 117.24 68.91 117.58 68.9C117.91 68.91 118.24 68.85 118.55 68.73C118.86 68.61 119.14 68.44 119.38 68.21C119.82 67.69 120.07 67.04 120.07 66.36C120.07 65.69 119.82 65.03 119.38 64.52C119.14 64.29 118.86 64.11 118.55 64C118.24 63.88 117.91 63.82 117.58 63.83C117.24 63.82 116.91 63.87 116.6 63.99C116.29 64.11 116 64.29 115.76 64.52C115.32 65.03 115.08 65.69 115.08 66.36C115.08 67.04 115.32 67.69 115.76 68.21Z" fill="#1E1B1B" fill-opacity="1.000000" fill-rule="nonzero"/>
		<path id="Vector" d="M127.34 59.64C127 59.93 126.57 60.09 126.13 60.09C125.69 60.09 125.26 59.93 124.92 59.64C124.77 59.5 124.65 59.33 124.57 59.14C124.49 58.95 124.45 58.74 124.45 58.53C124.45 58.33 124.49 58.12 124.57 57.93C124.65 57.74 124.77 57.57 124.92 57.43C125.26 57.15 125.69 56.99 126.13 56.99C126.57 56.99 127 57.15 127.34 57.43C127.49 57.57 127.61 57.74 127.69 57.93C127.77 58.12 127.81 58.33 127.81 58.53C127.81 58.74 127.77 58.95 127.69 59.14C127.61 59.33 127.49 59.5 127.34 59.64ZM127.6 71.21C126.85 71.24 126.11 71.03 125.49 70.6C125.24 70.41 125.04 70.16 124.9 69.88C124.76 69.59 124.7 69.28 124.71 68.96L124.71 62.14C124.7 62.09 124.71 62.04 124.73 61.99C124.74 61.94 124.77 61.9 124.8 61.86C124.84 61.83 124.88 61.8 124.93 61.79C124.98 61.77 125.03 61.77 125.08 61.77L127.2 61.77C127.44 61.77 127.55 61.9 127.55 62.14L127.55 68.06C127.55 68.53 127.76 68.77 128.19 68.77C128.38 68.78 128.58 68.76 128.76 68.71C129.01 68.71 129.15 68.79 129.17 69.01L129.35 70.58C129.36 70.62 129.36 70.67 129.35 70.72C129.34 70.76 129.32 70.81 129.29 70.84C129.26 70.88 129.23 70.91 129.19 70.93C129.14 70.95 129.1 70.97 129.05 70.97C128.58 71.12 128.09 71.2 127.6 71.21Z" fill="#1E1B1B" fill-opacity="1.000000" fill-rule="nonzero"/>
		<path id="Vector" d="M137.16 61.47C137.82 61.44 138.48 61.55 139.1 61.78C139.72 62.02 140.28 62.37 140.77 62.83C141.66 63.78 142.15 65.03 142.15 66.33C142.15 67.63 141.66 68.89 140.77 69.84C140.29 70.3 139.72 70.66 139.1 70.89C138.48 71.13 137.82 71.23 137.16 71.21C136.21 71.23 135.28 70.94 134.52 70.39L134.52 74.92C134.52 75.16 134.39 75.27 134.15 75.27L132.03 75.27C131.98 75.28 131.93 75.28 131.89 75.26C131.84 75.25 131.8 75.22 131.76 75.19C131.73 75.15 131.7 75.11 131.69 75.07C131.67 75.02 131.67 74.97 131.68 74.92L131.68 64.63C131.69 64.53 131.68 64.43 131.65 64.33C131.62 64.24 131.56 64.15 131.49 64.08C131.42 64 131.33 63.95 131.23 63.92C131.14 63.89 131.03 63.88 130.93 63.89L130.52 63.89C130.24 63.89 130.1 63.79 130.1 63.59L130.1 62.11C130.09 62.02 130.12 61.93 130.17 61.85C130.22 61.78 130.3 61.72 130.39 61.7C130.83 61.54 131.29 61.46 131.75 61.47C132.22 61.43 132.68 61.53 133.09 61.75C133.5 61.97 133.83 62.31 134.04 62.73C134.44 62.32 134.93 61.99 135.47 61.78C136 61.56 136.58 61.46 137.16 61.47ZM135.19 68.21C135.41 68.44 135.68 68.63 135.98 68.76C136.28 68.88 136.6 68.95 136.93 68.95C137.25 68.95 137.58 68.88 137.88 68.76C138.17 68.63 138.45 68.44 138.67 68.21C139.14 67.68 139.39 66.99 139.36 66.29C139.4 65.58 139.15 64.89 138.67 64.37C138.45 64.14 138.17 63.95 137.88 63.82C137.58 63.69 137.25 63.63 136.93 63.63C136.6 63.63 136.28 63.69 135.98 63.82C135.68 63.95 135.41 64.14 135.19 64.37C134.73 64.9 134.49 65.59 134.52 66.29C134.49 66.99 134.73 67.67 135.19 68.21Z" fill="#1E1B1B" fill-opacity="1.000000" fill-rule="nonzero"/>
		<path id="Vector" d="M148.11 71.21C146.98 71.25 145.85 70.98 144.87 70.43C144.47 70.19 144.13 69.87 143.88 69.48C143.63 69.1 143.46 68.66 143.4 68.21C143.4 67.96 143.49 67.83 143.77 67.83L145.62 67.83C145.71 67.83 145.8 67.86 145.87 67.91C145.95 67.96 146 68.03 146.04 68.11C146.31 68.79 147 69.12 148.11 69.12C148.5 69.14 148.88 69.06 149.23 68.9C149.36 68.84 149.46 68.76 149.53 68.65C149.61 68.54 149.65 68.41 149.66 68.28C149.66 67.96 149.46 67.73 149.06 67.58C148.58 67.42 148.08 67.32 147.58 67.27C146.99 67.2 146.39 67.1 145.81 66.95C145.25 66.83 144.73 66.53 144.34 66.11C144.1 65.83 143.93 65.5 143.83 65.14C143.73 64.79 143.71 64.42 143.76 64.05C143.81 63.69 143.93 63.34 144.13 63.02C144.32 62.71 144.58 62.43 144.88 62.22C145.79 61.65 146.86 61.37 147.93 61.42C148.98 61.39 150.01 61.64 150.91 62.16C151.28 62.37 151.59 62.65 151.83 62.99C152.07 63.33 152.23 63.72 152.3 64.13C152.3 64.38 152.19 64.51 151.96 64.51L150.09 64.51C150.01 64.51 149.94 64.49 149.87 64.45C149.8 64.41 149.75 64.35 149.71 64.28C149.59 63.98 149.35 63.75 149.06 63.62C148.72 63.44 148.35 63.36 147.97 63.36C147.6 63.34 147.23 63.42 146.9 63.58C146.78 63.62 146.68 63.7 146.61 63.81C146.54 63.91 146.5 64.03 146.5 64.16C146.5 64.33 146.57 64.49 146.67 64.62C146.78 64.76 146.93 64.85 147.1 64.9C147.59 65.08 148.09 65.2 148.6 65.27C149.19 65.35 149.78 65.46 150.36 65.6C150.92 65.73 151.44 66.02 151.83 66.44C152.05 66.67 152.21 66.94 152.32 67.24C152.42 67.53 152.47 67.84 152.45 68.16C152.46 68.59 152.36 69.02 152.16 69.4C151.95 69.79 151.65 70.11 151.28 70.34C150.34 70.94 149.23 71.24 148.11 71.21Z" fill="#1E1B1B" fill-opacity="1.000000" fill-rule="nonzero"/>
		<path id="Vector" d="M165.79 70.58C165.8 70.62 165.8 70.67 165.79 70.71C165.78 70.76 165.76 70.8 165.73 70.83C165.7 70.87 165.67 70.9 165.63 70.92C165.59 70.95 165.55 70.96 165.5 70.97C165.04 71.12 164.56 71.2 164.08 71.21C163.6 71.26 163.11 71.18 162.67 70.99C162.23 70.8 161.84 70.5 161.55 70.12C160.66 70.88 159.51 71.27 158.34 71.21C157.79 71.23 157.25 71.14 156.74 70.95C156.23 70.75 155.77 70.45 155.38 70.06C155 69.66 154.7 69.19 154.51 68.67C154.32 68.15 154.23 67.59 154.26 67.04L154.26 62.14C154.26 61.9 154.37 61.77 154.61 61.77L156.73 61.77C156.97 61.77 157.09 61.9 157.09 62.14L157.09 66.66C157.06 67.23 157.26 67.78 157.63 68.21C157.81 68.4 158.04 68.56 158.29 68.66C158.54 68.76 158.81 68.81 159.08 68.8C159.36 68.81 159.63 68.77 159.89 68.67C160.15 68.58 160.39 68.43 160.59 68.25C160.79 68.05 160.94 67.81 161.03 67.56C161.13 67.3 161.17 67.03 161.16 66.75L161.16 62.14C161.16 61.9 161.28 61.77 161.52 61.77L163.66 61.77C163.9 61.77 164.01 61.9 164.01 62.14L164.01 68.05C164.01 68.53 164.23 68.77 164.65 68.77C164.84 68.78 165.04 68.76 165.23 68.71C165.27 68.7 165.32 68.69 165.37 68.7C165.42 68.71 165.47 68.73 165.51 68.76C165.55 68.79 165.58 68.83 165.6 68.87C165.63 68.91 165.64 68.96 165.64 69.01L165.79 70.58Z" fill="#1E1B1B" fill-opacity="1.000000" fill-rule="nonzero"/>
		<path id="Vector" d="M185.85 70.58C185.86 70.62 185.86 70.67 185.85 70.72C185.84 70.76 185.83 70.8 185.8 70.84C185.77 70.88 185.73 70.91 185.69 70.93C185.65 70.95 185.61 70.97 185.56 70.97C185.09 71.12 184.6 71.2 184.11 71.21C183.36 71.25 182.62 71.03 182 70.6C181.73 70.42 181.52 70.17 181.37 69.89C181.22 69.6 181.15 69.28 181.15 68.96L181.15 66.01C181.18 65.45 180.99 64.9 180.62 64.47C180.45 64.27 180.23 64.12 179.98 64.02C179.74 63.91 179.48 63.87 179.21 63.88C178.97 63.87 178.74 63.92 178.52 64.01C178.3 64.11 178.1 64.25 177.95 64.43C177.62 64.85 177.45 65.38 177.47 65.91L177.47 70.54C177.47 70.78 177.36 70.91 177.12 70.91L174.98 70.91C174.93 70.91 174.88 70.91 174.84 70.89C174.79 70.87 174.75 70.85 174.71 70.81C174.68 70.78 174.65 70.73 174.63 70.69C174.62 70.64 174.61 70.59 174.62 70.54L174.62 66.01C174.64 65.46 174.47 64.91 174.12 64.47C173.97 64.28 173.78 64.14 173.56 64.03C173.34 63.93 173.1 63.88 172.86 63.88C172.6 63.87 172.35 63.91 172.11 64.01C171.87 64.1 171.65 64.25 171.47 64.43C171.11 64.84 170.93 65.37 170.96 65.91L170.96 70.54C170.96 70.59 170.96 70.64 170.94 70.69C170.92 70.73 170.9 70.78 170.86 70.81C170.83 70.85 170.78 70.87 170.74 70.89C170.69 70.91 170.64 70.91 170.59 70.91L168.53 70.91C168.29 70.91 168.18 70.78 168.18 70.54L168.18 64.63C168.19 64.53 168.19 64.43 168.15 64.33C168.12 64.24 168.07 64.15 167.99 64.08C167.92 64 167.83 63.95 167.74 63.92C167.64 63.89 167.54 63.88 167.43 63.89L167.02 63.89C166.74 63.89 166.6 63.79 166.6 63.59L166.6 62.11C166.6 62.02 166.62 61.93 166.67 61.85C166.73 61.78 166.8 61.72 166.89 61.7C167.33 61.54 167.79 61.46 168.26 61.47C168.7 61.43 169.15 61.52 169.55 61.73C169.94 61.93 170.28 62.24 170.5 62.62C170.93 62.22 171.43 61.91 171.98 61.72C172.54 61.52 173.12 61.43 173.71 61.47C174.28 61.44 174.84 61.55 175.36 61.78C175.88 62.01 176.34 62.36 176.7 62.8C177.12 62.35 177.63 62 178.2 61.77C178.77 61.54 179.39 61.43 180.01 61.47C180.56 61.44 181.11 61.53 181.62 61.73C182.14 61.93 182.61 62.23 183 62.61C183.38 63.01 183.68 63.49 183.87 64.01C184.06 64.53 184.15 65.08 184.12 65.64L184.12 68.06C184.12 68.53 184.34 68.77 184.74 68.77C184.94 68.78 185.13 68.76 185.32 68.71C185.58 68.71 185.72 68.81 185.74 69.01L185.85 70.58Z" fill="#1E1B1B" fill-opacity="1.000000" fill-rule="nonzero"/>
		<path id="Vector" d="M37.85 60.14C38.78 56.42 40.93 53.12 43.97 50.76C47.01 48.39 50.76 47.11 54.61 47.11C58.47 47.11 62.22 48.39 65.26 50.76C68.29 53.12 70.45 56.42 71.38 60.14L69.87 60.14C67.31 60.1 64.81 60.86 62.71 62.31C62.59 62.4 62.46 62.48 62.33 62.55L62.16 62.55C62.02 62.48 61.9 62.4 61.78 62.31C59.66 60.9 57.17 60.14 54.61 60.14C52.06 60.14 49.57 60.9 47.45 62.31C47.33 62.4 47.2 62.48 47.07 62.55L46.9 62.55C46.76 62.48 46.64 62.4 46.52 62.31C44.42 60.86 41.92 60.1 39.36 60.14L37.85 60.14ZM67.14 68.01C67.92 67.41 68.88 67.09 69.87 67.12L71.9 67.12L71.9 63.09L69.87 63.09C68.13 63.07 66.44 63.61 65.03 64.62C64.24 65.2 63.29 65.51 62.31 65.51C61.33 65.51 60.37 65.2 59.58 64.62C58.14 63.62 56.43 63.09 54.68 63.09C52.92 63.09 51.21 63.62 49.77 64.62C48.98 65.2 48.03 65.51 47.05 65.51C46.07 65.51 45.11 65.2 44.32 64.62C42.9 63.59 41.18 63.05 39.42 63.09L37.33 63.09L37.33 67.12L39.36 67.12C40.35 67.09 41.31 67.41 42.09 68.01C43.52 69 45.23 69.54 46.98 69.54C48.74 69.54 50.45 69 51.88 68.01C52.66 67.41 53.62 67.09 54.61 67.12C55.59 67.09 56.56 67.4 57.33 68.01C58.77 69 60.48 69.54 62.24 69.54C63.99 69.54 65.7 69 67.14 68.01ZM67.14 75.21C67.92 74.61 68.88 74.29 69.87 74.32L71.9 74.32L71.9 70.29L69.87 70.29C68.13 70.27 66.44 70.81 65.03 71.82C64.24 72.4 63.29 72.71 62.31 72.71C61.33 72.71 60.37 72.4 59.58 71.82C58.14 70.83 56.43 70.29 54.68 70.29C52.92 70.29 51.21 70.83 49.77 71.82C48.98 72.4 48.03 72.71 47.05 72.71C46.07 72.71 45.11 72.4 44.32 71.82C42.9 70.79 41.18 70.26 39.42 70.29L37.33 70.29L37.33 74.32L39.36 74.32C40.35 74.29 41.31 74.61 42.09 75.21C43.52 76.21 45.23 76.74 46.98 76.74C48.74 76.74 50.45 76.21 51.88 75.21C52.66 74.61 53.62 74.29 54.61 74.32C55.59 74.29 56.56 74.61 57.33 75.21C58.77 76.21 60.48 76.74 62.24 76.74C63.99 76.74 65.7 76.21 67.14 75.21Z" fill="#1E1B1B" fill-opacity="1.000000" fill-rule="nonzero"/>
	</g>
</svg>
