<svg width="225.000000" height="126.000000" viewBox="0 0 225 126" fill="none" xmlns="http://www.w3.org/2000/svg" xmlns:xlink="http://www.w3.org/1999/xlink">
	<desc>
			Created with Pixso.
	</desc>
	<defs>
		<clipPath id="clip482_1441">
			<rect id="logo-7 1" width="225.598495" height="126.672951" transform="translate(-0.799316 -0.793701)" fill="white" fill-opacity="0"/>
		</clipPath>
	</defs>
	<rect id="logo-7 1" width="225.598495" height="126.672951" transform="translate(-0.799316 -0.793701)" fill="#FFFFFF" fill-opacity="0"/>
	<g clip-path="url(#clip482_1441)">
		<path id="Vector" d="M80.25 55.03L84.05 55.03L84.05 70.39L80.25 70.39L80.25 55.03ZM85.56 64.59C85.56 60.79 87.9 58.52 91.5 58.52C95.1 58.52 97.44 60.79 97.44 64.59C97.44 68.39 95.16 70.67 91.5 70.67C87.85 70.67 85.56 68.45 85.56 64.59ZM93.62 64.59C93.62 62.5 92.8 61.27 91.5 61.27C90.21 61.27 89.39 62.54 89.39 64.59C89.39 66.64 90.19 67.88 91.5 67.88C92.81 67.88 93.62 66.72 93.62 64.6L93.62 64.59ZM98.87 71.14L102.53 71.14C102.7 71.52 103 71.84 103.37 72.05C103.74 72.25 104.16 72.34 104.58 72.28C106.03 72.28 106.79 71.49 106.79 70.35L106.79 68.23L106.72 68.23C106.41 68.88 105.92 69.42 105.3 69.79C104.69 70.16 103.97 70.34 103.25 70.3C100.47 70.3 98.63 68.19 98.63 64.55C98.63 60.92 100.38 58.62 103.3 58.62C104.04 58.59 104.78 58.79 105.4 59.19C106.03 59.59 106.52 60.17 106.81 60.85L106.81 58.74L110.61 58.74L110.61 70.26C110.61 73.04 108.16 74.76 104.55 74.76C101.18 74.76 99.09 73.25 98.87 71.15L98.87 71.14ZM106.81 64.58C106.81 62.73 105.95 61.56 104.61 61.56C103.26 61.56 102.44 62.72 102.44 64.58C102.44 66.44 103.25 67.49 104.61 67.49C105.97 67.49 106.81 66.46 106.81 64.59L106.81 64.58ZM112.05 64.58C112.05 60.78 114.38 58.51 117.98 58.51C121.59 58.51 123.94 60.78 123.94 64.58C123.94 68.38 121.65 70.66 117.98 70.66C114.32 70.66 112.05 68.45 112.05 64.59L112.05 64.58ZM120.1 64.58C120.1 62.49 119.28 61.26 117.98 61.26C116.69 61.26 115.94 62.54 115.94 64.6C115.94 66.67 116.74 67.9 118.04 67.9C119.33 67.9 120.1 66.72 120.1 64.6L120.1 64.58ZM125.38 55.98C125.37 55.59 125.48 55.21 125.68 54.89C125.89 54.57 126.19 54.31 126.54 54.15C126.89 54 127.28 53.95 127.66 54.02C128.04 54.08 128.39 54.26 128.66 54.52C128.94 54.79 129.14 55.13 129.22 55.51C129.3 55.88 129.27 56.27 129.13 56.63C128.99 56.99 128.75 57.29 128.44 57.51C128.12 57.73 127.75 57.86 127.36 57.86C127.11 57.88 126.85 57.85 126.61 57.76C126.37 57.67 126.15 57.54 125.96 57.36C125.78 57.19 125.63 56.98 125.53 56.74C125.43 56.51 125.38 56.26 125.38 56L125.38 55.98ZM125.38 58.76L129.19 58.76L129.19 70.39L125.38 70.39L125.38 58.76ZM143.01 64.58C143.01 68.38 141.32 70.54 138.43 70.54C137.69 70.59 136.95 70.41 136.31 70.02C135.68 69.64 135.17 69.07 134.87 68.39L134.8 68.39L134.8 74.12L130.99 74.12L130.99 58.74L134.8 58.74L134.8 60.82L134.87 60.82C135.16 60.12 135.65 59.54 136.28 59.14C136.92 58.74 137.66 58.54 138.4 58.57C141.32 58.62 143.06 60.8 143.06 64.6L143.01 64.58ZM139.2 64.58C139.2 62.73 138.35 61.55 137.02 61.55C135.69 61.55 134.84 62.74 134.82 64.58C134.81 66.41 135.69 67.59 137.02 67.59C138.35 67.59 139.2 66.44 139.2 64.6L139.2 64.58ZM149.54 58.5C152.7 58.5 154.62 59.99 154.71 62.39L151.24 62.39C151.24 61.56 150.56 61.04 149.51 61.04C148.45 61.04 147.98 61.45 147.98 62.04C147.98 62.64 148.4 62.83 149.25 63.01L151.69 63.5C154.01 63.99 155 64.93 155 66.69C155 69.1 152.81 70.64 149.57 70.64C146.33 70.64 144.21 69.1 144.05 66.73L147.72 66.73C147.83 67.59 148.52 68.1 149.63 68.1C150.75 68.1 151.26 67.73 151.26 67.12C151.26 66.52 150.9 66.39 149.99 66.2L147.79 65.73C145.52 65.26 144.33 64.06 144.33 62.28C144.35 60 146.4 58.52 149.54 58.52L149.54 58.5ZM167.7 70.37L164.04 70.37L164.04 68.2L163.96 68.2C163.76 68.93 163.31 69.56 162.7 70C162.09 70.44 161.34 70.66 160.58 70.62C160 70.65 159.43 70.56 158.89 70.35C158.35 70.14 157.86 69.82 157.45 69.4C157.05 68.99 156.74 68.49 156.54 67.95C156.35 67.41 156.27 66.83 156.32 66.25L156.32 58.74L160.13 58.74L160.13 65.38C160.13 66.76 160.84 67.49 162.02 67.49C162.3 67.49 162.57 67.43 162.82 67.32C163.07 67.21 163.3 67.04 163.48 66.83C163.66 66.62 163.8 66.38 163.88 66.12C163.96 65.85 163.98 65.57 163.95 65.3L163.95 58.74L167.75 58.74L167.7 70.37ZM169.54 58.74L173.22 58.74L173.22 60.98L173.3 60.98C173.5 60.26 173.94 59.63 174.54 59.19C175.13 58.74 175.86 58.51 176.61 58.52C177.37 58.46 178.13 58.69 178.73 59.16C179.32 59.63 179.73 60.3 179.85 61.06L179.92 61.06C180.15 60.3 180.63 59.64 181.28 59.18C181.93 58.72 182.71 58.49 183.5 58.52C184.02 58.5 184.54 58.6 185.02 58.79C185.5 58.99 185.93 59.28 186.29 59.65C186.65 60.02 186.92 60.47 187.1 60.95C187.28 61.44 187.35 61.96 187.31 62.47L187.31 70.39L183.5 70.39L183.5 63.49C183.5 62.22 182.93 61.64 181.87 61.64C181.63 61.64 181.39 61.69 181.17 61.78C180.96 61.88 180.76 62.02 180.61 62.2C180.45 62.38 180.33 62.58 180.26 62.81C180.19 63.04 180.17 63.28 180.2 63.51L180.2 70.39L176.59 70.39L176.59 63.44C176.59 62.27 176.02 61.64 174.97 61.64C174.73 61.64 174.5 61.69 174.28 61.79C174.06 61.89 173.86 62.03 173.7 62.21C173.54 62.39 173.42 62.6 173.35 62.83C173.28 63.06 173.26 63.3 173.29 63.54L173.29 70.39L169.48 70.39L169.54 58.74Z" fill="#1E1B1B" fill-opacity="1.000000" fill-rule="nonzero"/>
		<path id="Vector" d="M69.6 55.72C68.95 54.25 68.1 52.88 67.06 51.64C65.53 49.77 63.61 48.24 61.45 47.16C59.28 46.08 56.9 45.46 54.48 45.36C52.06 45.26 49.64 45.67 47.39 46.57C45.14 47.47 43.11 48.83 41.42 50.57C39.74 52.31 38.44 54.39 37.61 56.67C36.79 58.94 36.46 61.37 36.64 63.78C36.83 66.19 37.52 68.54 38.68 70.67C39.83 72.79 41.43 74.65 43.36 76.12C44.59 77.08 45.96 77.86 47.42 78.44C49.46 79.27 51.64 79.7 53.85 79.7C58.41 79.69 62.77 77.88 65.99 74.66C69.21 71.44 71.02 67.08 71.02 62.54C71.02 60.19 70.54 57.87 69.6 55.72ZM53.84 48.84C55.82 48.84 57.78 49.28 59.57 50.11C59.14 50.3 58.68 50.43 58.2 50.5C56.65 50.73 55.21 51.45 54.1 52.56C52.99 53.66 52.27 55.1 52.05 56.65C51.95 57.52 51.55 58.33 50.93 58.94C50.3 59.55 49.48 59.93 48.61 60C47.06 60.23 45.62 60.95 44.51 62.06C43.4 63.16 42.68 64.6 42.46 66.15C42.38 66.97 42.03 67.75 41.45 68.35C40.46 66.27 40.02 63.96 40.16 61.66C40.3 59.36 41.03 57.13 42.26 55.18C43.5 53.23 45.21 51.62 47.24 50.51C49.26 49.4 51.54 48.82 53.85 48.82L53.84 48.84ZM43.34 71.41C43.5 71.27 43.65 71.14 43.8 70.99C44.93 69.89 45.65 68.45 45.86 66.9C45.94 66.02 46.33 65.2 46.96 64.59C47.57 63.96 48.38 63.57 49.26 63.5C50.81 63.28 52.25 62.56 53.36 61.45C54.47 60.34 55.19 58.91 55.41 57.36C55.47 56.44 55.86 55.58 56.52 54.94C57.14 54.32 57.96 53.95 58.84 53.89C60.26 53.69 61.59 53.06 62.64 52.07C63.84 53.07 64.85 54.26 65.64 55.6C65.59 55.66 65.54 55.72 65.47 55.77C64.87 56.41 64.05 56.81 63.18 56.89C61.62 57.11 60.18 57.83 59.07 58.93C57.96 60.04 57.24 61.48 57.02 63.03C56.93 63.9 56.55 64.72 55.92 65.34C55.3 65.96 54.48 66.34 53.61 66.43C52.05 66.65 50.61 67.37 49.49 68.47C48.38 69.58 47.65 71.02 47.42 72.57C47.35 73.19 47.14 73.78 46.8 74.31C45.49 73.53 44.33 72.55 43.34 71.41ZM53.84 76.29C52.55 76.3 51.27 76.12 50.03 75.76C50.45 74.97 50.73 74.12 50.84 73.23C50.93 72.36 51.32 71.55 51.94 70.93C52.56 70.31 53.37 69.92 54.24 69.83C55.8 69.61 57.24 68.89 58.35 67.79C59.46 66.68 60.19 65.24 60.41 63.69C60.5 62.82 60.89 62.01 61.51 61.39C62.13 60.77 62.94 60.38 63.81 60.3C64.98 60.14 66.1 59.71 67.06 59.03C67.6 61.05 67.66 63.17 67.25 65.23C66.83 67.28 65.95 69.21 64.68 70.87C63.4 72.53 61.76 73.88 59.88 74.81C58 75.74 55.94 76.22 53.84 76.23L53.84 76.29Z" fill="#1E1B1B" fill-opacity="1.000000" fill-rule="nonzero"/>
	</g>
</svg>
