<svg width="225.000000" height="126.000000" viewBox="0 0 225 126" fill="none" xmlns="http://www.w3.org/2000/svg" xmlns:xlink="http://www.w3.org/1999/xlink">
	<desc>
			Created with Pixso.
	</desc>
	<defs>
		<clipPath id="clip482_1427">
			<rect id="logo-8 1" width="224.392090" height="126.672951" transform="translate(0.000000 -0.793701)" fill="white" fill-opacity="0"/>
		</clipPath>
	</defs>
	<rect id="logo-8 1" width="224.392090" height="126.672951" transform="translate(0.000000 -0.793701)" fill="#FFFFFF" fill-opacity="0"/>
	<g clip-path="url(#clip482_1427)">
		<path id="Vector" d="M52.27 60.47C51.8 60.96 51.43 61.54 51.2 62.18C50.97 62.82 50.89 63.51 50.95 64.18L50.93 64.16C51 64.96 50.89 65.76 50.62 66.51C50.34 67.27 49.91 67.95 49.34 68.52C48.78 69.08 48.1 69.52 47.35 69.79C46.6 70.07 45.8 70.18 45.01 70.11L45.03 70.13C44.08 70.04 43.12 70.25 42.29 70.73C41.47 71.2 40.8 71.92 40.4 72.79C39.99 73.66 39.86 74.63 40.03 75.57C40.19 76.52 40.64 77.39 41.32 78.07C41.99 78.74 42.86 79.19 43.8 79.36C44.74 79.52 45.71 79.39 46.58 78.99C47.44 78.58 48.16 77.91 48.63 77.08C49.1 76.25 49.31 75.29 49.22 74.33L49.25 74.36C49.18 73.56 49.29 72.76 49.56 72C49.83 71.25 50.27 70.57 50.83 70C51.4 69.44 52.08 69 52.83 68.73C53.57 68.45 54.37 68.34 55.17 68.41L55.15 68.39C55.92 68.46 56.7 68.33 57.42 68.02C58.13 67.7 58.76 67.21 59.23 66.59C59.71 65.97 60.02 65.24 60.14 64.47C60.26 63.69 60.18 62.9 59.92 62.17C59.65 61.43 59.2 60.78 58.61 60.26C58.03 59.74 57.32 59.38 56.56 59.22C55.8 59.05 55.01 59.07 54.26 59.29C53.51 59.51 52.83 59.92 52.28 60.47L52.27 60.47Z" fill="#1E1B1B" fill-opacity="1.000000" fill-rule="nonzero"/>
		<path id="Vector" d="M42.96 67.14L42.94 67.12C43.61 67.19 44.3 67.11 44.94 66.88C45.58 66.65 46.16 66.28 46.64 65.8C47.12 65.32 47.49 64.73 47.71 64.09C47.94 63.45 48.03 62.77 47.96 62.09L47.98 62.11C47.92 61.31 48.02 60.51 48.3 59.76C48.57 59 49.01 58.32 49.57 57.76C50.13 57.19 50.81 56.75 51.56 56.48C52.31 56.2 53.11 56.1 53.91 56.16L53.88 56.14C54.83 56.23 55.79 56.02 56.62 55.55C57.45 55.07 58.11 54.35 58.52 53.48C58.93 52.62 59.06 51.64 58.89 50.7C58.73 49.76 58.28 48.89 57.6 48.21C56.92 47.53 56.06 47.08 55.12 46.91C54.18 46.75 53.21 46.88 52.34 47.29C51.48 47.69 50.76 48.36 50.29 49.19C49.81 50.02 49.61 50.98 49.7 51.94L49.67 51.91C49.74 52.71 49.63 53.51 49.36 54.27C49.09 55.02 48.65 55.7 48.09 56.27C47.52 56.83 46.84 57.27 46.09 57.55C45.34 57.82 44.54 57.93 43.75 57.86L43.77 57.88C43.09 57.82 42.41 57.9 41.77 58.13C41.13 58.36 40.55 58.72 40.07 59.21C39.59 59.69 39.22 60.27 39 60.91C38.77 61.55 38.68 62.24 38.75 62.92L38.73 62.89C38.8 63.69 38.69 64.5 38.41 65.25C38.14 66 37.71 66.68 37.14 67.25C36.58 67.81 35.9 68.25 35.15 68.53C34.4 68.8 33.6 68.91 32.8 68.84L32.83 68.86C31.88 68.77 30.92 68.98 30.09 69.46C29.26 69.93 28.6 70.65 28.19 71.52C27.78 72.39 27.65 73.36 27.82 74.3C27.98 75.25 28.43 76.12 29.11 76.8C29.78 77.47 30.65 77.93 31.59 78.09C32.53 78.26 33.5 78.13 34.37 77.72C35.23 77.31 35.95 76.65 36.42 75.81C36.9 74.98 37.1 74.02 37.01 73.07L37.04 73.09C36.97 72.29 37.08 71.49 37.35 70.74C37.63 69.99 38.06 69.3 38.62 68.74C39.19 68.17 39.87 67.73 40.62 67.46C41.37 67.18 42.17 67.08 42.96 67.14Z" fill="#1E1B1B" fill-opacity="1.000000" fill-rule="nonzero"/>
		<path id="Vector" d="M34.5 64.6C34.98 64.12 35.35 63.54 35.58 62.89C35.8 62.25 35.89 61.57 35.82 60.89L35.85 60.91C35.78 60.12 35.89 59.31 36.16 58.56C36.44 57.81 36.87 57.13 37.43 56.56C38 55.99 38.68 55.56 39.43 55.28C40.18 55.01 40.98 54.9 41.77 54.97L41.75 54.95C42.7 55.03 43.66 54.83 44.49 54.35C45.31 53.88 45.98 53.16 46.38 52.29C46.79 51.42 46.92 50.45 46.75 49.51C46.59 48.56 46.14 47.69 45.46 47.01C44.79 46.34 43.92 45.88 42.98 45.72C42.04 45.55 41.07 45.68 40.21 46.09C39.34 46.5 38.63 47.17 38.15 48C37.68 48.83 37.47 49.79 37.56 50.74L37.54 50.72C37.61 51.52 37.5 52.32 37.23 53.07C36.95 53.82 36.52 54.51 35.95 55.07C35.39 55.64 34.71 56.08 33.96 56.35C33.21 56.62 32.41 56.73 31.61 56.67L31.64 56.69C30.86 56.62 30.08 56.75 29.36 57.06C28.65 57.37 28.03 57.86 27.55 58.48C27.08 59.11 26.76 59.84 26.64 60.61C26.53 61.38 26.6 62.17 26.87 62.91C27.14 63.65 27.58 64.3 28.17 64.82C28.76 65.33 29.46 65.69 30.22 65.86C30.99 66.03 31.78 66 32.53 65.78C33.27 65.56 33.96 65.16 34.51 64.6L34.5 64.6Z" fill="#1E1B1B" fill-opacity="1.000000" fill-rule="nonzero"/>
		<path id="Vector" d="M73.6 51.97L77.35 51.97L77.35 70.28L73.6 70.28L73.6 51.97Z" fill="#1E1B1B" fill-opacity="1.000000" fill-rule="nonzero"/>
		<path id="Vector" d="M79.47 64.01C79.47 62.69 79.85 61.4 80.58 60.31C81.3 59.21 82.33 58.35 83.54 57.85C84.75 57.34 86.09 57.2 87.37 57.46C88.66 57.71 89.84 58.34 90.77 59.27C91.7 60.2 92.33 61.38 92.59 62.67C92.85 63.96 92.72 65.3 92.22 66.52C91.72 67.73 90.87 68.77 89.78 69.5C88.69 70.24 87.41 70.63 86.1 70.63C85.23 70.64 84.36 70.47 83.56 70.14C82.75 69.81 82.02 69.33 81.4 68.71C80.79 68.09 80.3 67.36 79.97 66.55C79.64 65.75 79.47 64.88 79.47 64.01ZM88.97 64.01C88.96 63.44 88.77 62.89 88.45 62.43C88.12 61.96 87.67 61.6 87.14 61.4C86.62 61.19 86.04 61.15 85.49 61.27C84.94 61.39 84.43 61.67 84.04 62.07C83.64 62.48 83.38 62.99 83.27 63.55C83.17 64.11 83.23 64.69 83.45 65.21C83.67 65.73 84.04 66.18 84.51 66.49C84.98 66.8 85.53 66.97 86.1 66.97C86.48 66.98 86.87 66.91 87.23 66.77C87.59 66.62 87.91 66.4 88.18 66.12C88.45 65.84 88.66 65.51 88.8 65.15C88.93 64.78 88.99 64.39 88.97 64.01Z" fill="#1E1B1B" fill-opacity="1.000000" fill-rule="nonzero"/>
		<path id="Vector" d="M107.66 57.74L107.66 69.64C107.66 73.86 104.39 75.64 101.06 75.64C99.89 75.73 98.72 75.49 97.68 74.95C96.63 74.42 95.75 73.6 95.14 72.6L98.34 70.74C98.6 71.26 99.01 71.7 99.52 71.98C100.03 72.26 100.61 72.38 101.19 72.32C101.56 72.37 101.94 72.34 102.29 72.23C102.65 72.11 102.97 71.92 103.24 71.66C103.51 71.4 103.72 71.09 103.86 70.74C103.99 70.39 104.04 70.01 104.01 69.64L104.01 68.49C103.57 69.03 103.01 69.46 102.38 69.74C101.75 70.03 101.06 70.16 100.36 70.12C98.71 70.07 97.15 69.38 96 68.19C94.85 67 94.21 65.41 94.21 63.75C94.21 62.1 94.85 60.51 96 59.32C97.15 58.13 98.71 57.43 100.36 57.38C101.06 57.35 101.75 57.48 102.38 57.76C103.01 58.05 103.57 58.47 104.01 59.01L104.01 57.73L107.66 57.74ZM104.01 63.75C104.04 63.15 103.88 62.55 103.57 62.03C103.25 61.51 102.78 61.11 102.23 60.86C101.68 60.61 101.07 60.53 100.47 60.63C99.88 60.73 99.32 61.01 98.89 61.43C98.45 61.85 98.15 62.4 98.02 62.99C97.9 63.58 97.95 64.2 98.18 64.76C98.4 65.33 98.79 65.81 99.29 66.15C99.79 66.49 100.39 66.67 100.99 66.67C101.38 66.69 101.78 66.64 102.15 66.5C102.52 66.37 102.86 66.16 103.15 65.88C103.43 65.61 103.65 65.28 103.8 64.91C103.95 64.54 104.03 64.15 104.01 63.75Z" fill="#1E1B1B" fill-opacity="1.000000" fill-rule="nonzero"/>
		<path id="Vector" d="M109.78 64.01C109.78 62.69 110.16 61.4 110.89 60.31C111.61 59.21 112.64 58.35 113.85 57.85C115.06 57.34 116.4 57.2 117.68 57.46C118.97 57.71 120.15 58.34 121.08 59.27C122.01 60.2 122.64 61.38 122.9 62.67C123.16 63.96 123.03 65.3 122.53 66.52C122.03 67.73 121.18 68.77 120.09 69.5C119 70.24 117.72 70.63 116.41 70.63C115.54 70.64 114.67 70.47 113.87 70.14C113.06 69.81 112.33 69.33 111.71 68.71C111.09 68.09 110.61 67.36 110.28 66.55C109.94 65.75 109.78 64.88 109.78 64.01ZM119.28 64.01C119.27 63.44 119.08 62.89 118.76 62.43C118.43 61.96 117.98 61.6 117.45 61.4C116.93 61.19 116.35 61.15 115.8 61.27C115.24 61.39 114.74 61.67 114.35 62.07C113.95 62.48 113.69 62.99 113.58 63.55C113.48 64.11 113.54 64.69 113.76 65.21C113.98 65.73 114.35 66.18 114.82 66.49C115.29 66.8 115.84 66.97 116.41 66.97C116.79 66.98 117.18 66.91 117.54 66.77C117.9 66.62 118.22 66.4 118.49 66.12C118.76 65.84 118.97 65.51 119.11 65.15C119.24 64.78 119.3 64.39 119.28 64.01Z" fill="#1E1B1B" fill-opacity="1.000000" fill-rule="nonzero"/>
		<path id="Vector" d="M124.78 54.38C124.78 53.93 124.91 53.49 125.16 53.12C125.4 52.75 125.76 52.46 126.17 52.29C126.58 52.12 127.03 52.07 127.47 52.16C127.9 52.25 128.3 52.46 128.62 52.78C128.93 53.09 129.15 53.5 129.23 53.93C129.32 54.37 129.28 54.83 129.11 55.24C128.94 55.65 128.65 56 128.28 56.25C127.91 56.5 127.47 56.63 127.03 56.63C126.43 56.63 125.86 56.39 125.44 55.96C125.02 55.54 124.78 54.97 124.78 54.38ZM125.16 57.74L128.91 57.74L128.91 70.28L125.15 70.28L125.16 57.74Z" fill="#1E1B1B" fill-opacity="1.000000" fill-rule="nonzero"/>
		<path id="Vector" d="M145.09 64.01C145.14 64.83 145.02 65.66 144.74 66.45C144.46 67.23 144.03 67.95 143.48 68.56C142.92 69.18 142.25 69.68 141.5 70.03C140.76 70.38 139.95 70.59 139.12 70.63C138.43 70.66 137.73 70.55 137.09 70.28C136.44 70.02 135.87 69.61 135.4 69.1L135.4 75.29L131.65 75.29L131.65 57.74L135.4 57.74L135.4 58.91C135.87 58.4 136.44 57.99 137.09 57.73C137.73 57.46 138.43 57.35 139.12 57.38C139.95 57.42 140.76 57.63 141.5 57.98C142.25 58.33 142.92 58.83 143.48 59.45C144.03 60.06 144.46 60.78 144.74 61.57C145.02 62.35 145.14 63.18 145.09 64.01ZM141.34 64.01C141.33 63.42 141.14 62.85 140.81 62.37C140.47 61.89 140 61.52 139.46 61.3C138.91 61.09 138.32 61.04 137.75 61.16C137.17 61.29 136.65 61.58 136.24 62C135.83 62.42 135.56 62.95 135.45 63.53C135.34 64.1 135.4 64.7 135.63 65.24C135.86 65.78 136.24 66.24 136.73 66.57C137.22 66.89 137.79 67.07 138.37 67.07C138.77 67.08 139.17 67.02 139.55 66.87C139.92 66.72 140.26 66.49 140.54 66.2C140.82 65.91 141.04 65.57 141.18 65.19C141.32 64.81 141.37 64.41 141.34 64.01Z" fill="#1E1B1B" fill-opacity="1.000000" fill-rule="nonzero"/>
		<path id="Vector" d="M156.66 66.51C156.66 69.4 154.16 70.63 151.46 70.63C150.37 70.73 149.28 70.49 148.32 69.96C147.36 69.43 146.59 68.62 146.09 67.64L149.34 65.79C149.47 66.24 149.75 66.63 150.14 66.9C150.52 67.17 150.99 67.3 151.46 67.27C152.36 67.27 152.81 66.99 152.81 66.49C152.81 65.11 146.66 65.84 146.66 61.5C146.66 58.76 148.96 57.38 151.56 57.38C152.54 57.35 153.5 57.59 154.36 58.06C155.22 58.53 155.93 59.22 156.43 60.07L153.23 61.8C153.09 61.47 152.86 61.19 152.56 60.99C152.26 60.8 151.92 60.69 151.56 60.7C150.91 60.7 150.51 60.95 150.51 61.4C150.51 62.83 156.66 61.87 156.66 66.51Z" fill="#1E1B1B" fill-opacity="1.000000" fill-rule="nonzero"/>
		<path id="Vector" d="M170.36 57.74L170.36 70.28L166.61 70.28L166.61 69.1C166.17 69.62 165.62 70.03 165 70.29C164.38 70.56 163.71 70.67 163.03 70.63C160.51 70.63 158.36 68.82 158.36 65.43L158.36 57.74L162.11 57.74L162.11 64.88C162.08 65.18 162.12 65.48 162.21 65.77C162.31 66.05 162.47 66.31 162.67 66.53C162.88 66.75 163.13 66.91 163.41 67.02C163.69 67.13 163.99 67.18 164.29 67.16C165.66 67.16 166.61 66.36 166.61 64.58L166.61 57.74L170.36 57.74Z" fill="#1E1B1B" fill-opacity="1.000000" fill-rule="nonzero"/>
		<path id="Vector" d="M191.85 62.58L191.85 70.28L188.1 70.28L188.1 62.9C188.1 61.65 187.5 60.85 186.3 60.85C185.05 60.85 184.35 61.72 184.35 63.2L184.35 70.28L180.61 70.28L180.61 62.9C180.61 61.65 180.01 60.85 178.81 60.85C177.56 60.85 176.86 61.72 176.86 63.2L176.86 70.28L173.11 70.28L173.11 57.73L176.86 57.73L176.86 58.89C177.25 58.38 177.76 57.97 178.34 57.71C178.93 57.45 179.57 57.33 180.21 57.38C180.85 57.35 181.49 57.49 182.06 57.78C182.63 58.07 183.12 58.5 183.48 59.04C183.89 58.48 184.44 58.03 185.08 57.74C185.71 57.45 186.41 57.33 187.1 57.38C189.97 57.38 191.85 59.44 191.85 62.58Z" fill="#1E1B1B" fill-opacity="1.000000" fill-rule="nonzero"/>
		<path id="Vector" d="M197.8 54.87C197.8 56.41 196.56 57.66 195.02 57.66C193.48 57.66 192.24 56.41 192.24 54.87C192.24 53.32 193.48 52.07 195.02 52.07C196.56 52.07 197.8 53.32 197.8 54.87Z" fill="#1E1B1B" fill-opacity="1.000000" fill-rule="evenodd"/>
	</g>
</svg>
